{"glyphs":{"0":{"ha":815,"x_min":83,"x_max":732,"o":"m 408 910 q 570 910 408 910 q 732 444 732 910 q 408 -21 732 -21 q 83 444 83 -21 q 408 910 83 910 m 408 819 q 305 819 408 819 q 201 444 201 819 q 408 69 201 69 q 614 444 614 69 q 408 819 614 819 z "},"1":{"ha":521,"x_min":0,"x_max":507,"o":"m 288 900 q 318 901 300 901 q 351 900 336 901 q 378 899 367 899 q 358 484 358 749 q 369 88 358 219 l 504 76 q 507 38 507 54 q 503 -1 507 22 q 307 0 421 0 q 113 -1 193 0 q 108 35 108 19 q 111 76 108 51 l 243 88 q 254 456 254 236 q 246 768 254 676 q 64 639 90 665 q 0 750 10 699 q 288 900 89 786 z "},"2":{"ha":747,"x_min":63,"x_max":669,"o":"m 90 740 q 180 864 111 818 q 363 910 249 910 q 558 847 478 910 q 639 667 639 783 q 592 519 639 599 q 488 378 546 439 q 235 96 285 165 q 368 94 281 94 q 575 104 456 94 l 579 207 q 622 211 603 211 q 657 210 640 211 q 669 -1 661 96 l 663 -8 q 431 4 556 4 q 202 -3 307 4 q 68 -15 97 -10 q 63 33 63 1 q 282 307 125 146 q 394 428 340 367 q 517 663 517 561 q 479 776 517 724 q 356 828 442 828 q 217 771 269 828 q 233 713 233 750 q 213 651 233 676 q 151 625 193 625 q 86 700 86 625 q 90 740 86 728 z "},"3":{"ha":735,"x_min":56,"x_max":665,"o":"m 333 -21 q 142 31 228 -21 q 56 181 56 83 q 128 264 56 264 q 196 235 174 264 q 218 167 218 207 q 201 104 218 128 q 338 68 244 68 q 488 115 431 68 q 544 231 544 161 q 515 347 544 301 q 431 411 485 393 q 315 406 354 406 q 243 410 275 406 q 236 458 236 435 q 250 507 236 482 q 355 498 282 497 q 473 544 428 499 q 518 662 518 590 q 469 781 518 733 q 344 828 421 828 q 222 786 267 828 q 242 720 242 763 q 218 651 242 678 q 151 625 194 625 q 79 708 79 625 q 88 763 79 742 q 346 910 144 910 q 556 844 479 910 q 633 667 633 779 q 508 461 633 513 q 665 240 665 401 q 579 47 665 114 q 333 -21 493 -21 z "},"4":{"ha":710,"x_min":0,"x_max":626,"o":"m 353 888 q 439 901 394 901 q 556 896 483 901 q 536 563 536 742 q 538 339 536 383 q 621 349 607 344 q 626 293 626 326 q 615 226 626 260 q 540 233 565 232 q 549 81 543 142 l 599 76 q 601 38 601 54 q 597 -1 601 22 q 485 0 549 0 q 374 -1 421 0 q 369 35 369 19 q 372 76 369 51 l 421 81 q 429 238 426 154 q 231 239 386 239 q 4 231 76 239 q 0 281 0 243 q 69 390 21 313 q 136 497 117 467 q 193 590 156 528 q 253 690 231 651 q 353 888 311 797 m 153 331 q 272 329 204 329 q 432 332 340 329 l 432 426 q 421 804 432 700 q 153 331 319 663 z "},"5":{"ha":738,"x_min":74,"x_max":668,"o":"m 236 536 q 370 549 306 549 q 499 523 435 549 q 600 454 564 497 q 668 253 668 371 q 587 57 668 135 q 340 -21 506 -21 q 157 31 240 -21 q 74 181 74 83 q 146 264 74 264 q 214 235 192 264 q 236 167 236 207 q 219 104 236 128 q 352 68 263 68 q 494 124 442 68 q 547 258 547 179 q 501 399 547 336 q 344 461 454 461 q 172 419 233 461 q 111 428 133 419 q 139 608 129 479 q 149 806 149 736 q 147 897 149 876 q 387 889 233 889 q 619 900 540 889 l 626 893 q 614 696 617 786 q 578 694 597 694 q 536 699 558 694 l 532 793 q 392 797 449 797 q 261 796 335 796 q 236 536 239 656 z "},"6":{"ha":763,"x_min":90,"x_max":693,"o":"m 590 625 q 522 653 544 625 q 500 723 500 682 q 519 788 500 764 q 394 828 476 828 q 259 728 313 828 q 206 454 206 628 q 426 553 281 553 q 615 478 536 553 q 693 274 693 403 q 606 63 693 146 q 389 -21 519 -21 q 156 85 222 -21 q 90 415 90 192 q 172 797 90 674 q 263 877 204 844 q 413 910 322 910 q 583 857 504 910 q 663 715 663 804 q 590 625 663 625 m 384 69 q 422 69 384 69 q 517 119 460 69 q 575 267 575 169 q 528 417 575 365 q 403 468 481 468 q 269 413 326 468 q 211 263 211 358 q 260 118 211 167 q 384 69 308 69 z "},"7":{"ha":619,"x_min":21,"x_max":599,"o":"m 422 796 q 310 797 388 797 q 115 788 232 797 l 111 699 q 69 694 89 694 q 33 696 50 694 q 21 893 31 786 l 28 900 q 307 888 78 888 l 347 888 q 483 894 399 888 q 593 907 568 901 q 599 858 599 882 q 392 408 488 654 q 276 3 297 163 q 202 -11 236 -11 q 135 -6 168 -11 q 422 796 217 267 z "},"8":{"ha":785,"x_min":83,"x_max":701,"o":"m 260 463 q 108 682 108 550 q 178 845 108 781 q 394 910 249 910 q 679 676 679 910 q 539 444 679 561 q 701 222 701 358 q 608 42 701 106 q 392 -21 515 -21 q 153 50 239 -21 q 83 218 83 107 q 260 463 83 329 m 392 82 q 530 128 481 82 q 579 226 579 174 q 557 292 579 269 q 522 326 535 315 q 481 353 510 338 l 436 375 q 385 400 422 383 q 335 424 349 417 q 206 215 206 318 q 392 82 206 82 m 228 694 q 353 533 228 599 q 457 483 415 500 q 539 575 514 521 q 564 676 564 629 q 396 828 564 828 q 278 793 328 828 q 228 694 228 758 z "},"9":{"ha":763,"x_min":69,"x_max":672,"o":"m 158 264 q 226 235 204 264 q 249 166 249 207 q 231 103 249 125 q 365 63 275 63 q 506 160 456 63 q 557 435 557 257 q 336 336 482 336 q 148 411 226 336 q 69 615 69 486 q 156 826 69 743 q 374 910 243 910 q 606 803 540 910 q 672 474 672 697 q 589 92 672 210 q 496 12 556 44 q 346 -21 436 -21 q 189 19 256 -21 q 94 126 122 60 q 86 181 86 144 q 158 264 86 264 m 361 421 q 399 421 361 421 q 494 472 436 421 q 551 623 551 524 q 504 775 551 722 q 380 828 457 828 q 245 772 303 828 q 188 618 188 715 q 237 471 188 521 q 361 421 286 421 z "}," ":{"ha":319,"x_min":0,"x_max":0,"o":""},"!":{"ha":375,"x_min":125,"x_max":306,"o":"m 168 521 q 132 921 168 776 q 213 936 174 936 q 285 928 251 936 q 257 340 257 665 q 260 250 257 294 q 213 242 233 242 q 165 250 192 242 q 168 521 168 397 m 306 76 q 281 7 306 35 q 204 -21 256 -21 q 125 60 125 -21 q 226 160 125 160 q 306 76 306 160 z "},"\"":{"ha":488,"x_min":83,"x_max":404,"o":"m 83 940 q 156 947 115 947 q 210 943 197 947 q 194 621 194 775 q 145 613 169 613 q 104 617 121 613 q 83 940 104 799 m 278 940 q 351 947 310 947 q 404 943 392 947 q 389 621 389 775 q 340 613 364 613 q 299 617 315 613 q 278 940 299 799 z "},"#":{"ha":1060,"x_min":69,"x_max":990,"o":"m 660 -64 q 565 -37 606 -64 q 626 213 599 88 q 497 214 568 214 q 342 211 425 214 q 301 -61 329 135 q 271 -64 276 -64 q 176 -37 217 -64 q 236 207 201 57 q 76 194 122 203 q 69 249 69 215 q 85 317 69 282 q 258 307 154 310 q 311 581 292 474 q 149 568 193 576 q 142 622 142 589 q 157 690 142 656 q 329 681 228 683 q 371 954 351 815 q 418 956 382 956 q 494 931 454 956 q 432 678 463 813 l 621 678 q 718 679 676 678 q 760 954 742 819 q 807 956 771 956 q 883 931 843 956 q 822 683 860 846 q 983 697 957 692 q 990 643 990 676 q 975 575 990 610 q 800 583 879 582 q 747 310 768 426 q 911 324 885 318 q 918 269 918 303 q 903 201 918 236 q 731 210 810 208 q 690 -61 718 133 q 660 -64 665 -64 m 549 304 q 647 306 606 304 q 701 586 678 449 q 569 588 642 588 q 411 585 497 588 q 357 304 383 454 l 549 304 z "},"$":{"ha":764,"x_min":93,"x_max":663,"o":"m 165 271 q 232 244 208 271 q 256 180 256 218 q 243 118 256 142 q 384 68 304 68 q 504 105 464 68 q 544 206 544 142 q 500 315 544 269 q 392 392 456 361 q 267 456 329 422 q 160 547 204 490 q 115 690 115 604 q 172 835 115 776 q 328 906 228 893 q 322 1022 325 985 q 408 1040 353 1040 q 449 1036 422 1040 q 435 906 443 989 q 581 841 521 892 q 642 708 642 790 q 569 625 642 625 q 503 651 526 625 q 479 719 479 678 q 496 783 479 761 q 376 828 447 828 q 270 792 306 828 q 235 701 235 756 q 267 609 235 647 q 346 547 299 571 q 449 491 393 522 q 551 429 504 460 q 631 347 599 399 q 663 228 663 294 q 591 52 663 121 q 404 -21 519 -17 q 411 -110 404 -85 q 340 -128 374 -128 q 285 -124 306 -128 q 296 -10 293 -53 q 151 59 208 8 q 93 190 93 110 q 165 271 93 271 z "},"%":{"ha":1235,"x_min":69,"x_max":1165,"o":"m 465 -64 q 386 -37 418 -64 q 739 953 558 368 q 775 956 761 956 q 849 931 814 956 q 494 -61 681 543 q 465 -64 472 -64 m 961 549 q 1063 549 961 549 q 1165 268 1165 549 q 961 -12 1165 -12 q 757 268 757 -12 q 961 549 757 549 m 962 475 q 908 475 962 475 q 854 268 854 475 q 962 61 854 61 q 1069 268 1069 61 q 962 475 1069 475 m 274 907 q 376 907 274 907 q 478 626 478 907 q 274 346 478 346 q 69 626 69 346 q 274 907 69 907 m 274 833 q 220 833 274 833 q 167 626 167 833 q 274 419 167 419 q 382 626 382 419 q 274 833 382 833 z "},"&":{"ha":825,"x_min":65,"x_max":794,"o":"m 544 394 q 542 433 542 414 q 546 472 542 453 q 667 471 578 471 q 790 472 756 471 q 794 430 794 451 q 792 394 794 408 l 715 390 q 639 188 690 272 q 789 7 715 103 q 693 -17 742 -17 q 635 -15 644 -17 q 584 52 604 25 q 558 86 564 79 q 296 -21 443 -21 q 129 45 193 -21 q 65 217 65 111 q 207 469 65 358 q 129 696 129 574 q 195 851 129 793 q 360 910 261 910 q 513 858 460 910 q 567 730 567 806 q 522 597 567 654 q 368 468 476 540 q 568 260 397 432 q 606 390 596 322 l 544 394 m 326 79 q 497 158 414 79 q 269 396 454 210 q 179 247 179 322 q 220 126 179 172 q 326 79 261 79 m 239 713 q 310 539 239 638 q 424 629 390 590 q 457 715 457 668 q 425 797 457 763 q 345 832 393 832 q 268 799 297 832 q 239 713 239 765 z "},"'":{"ha":293,"x_min":83,"x_max":210,"o":"m 83 940 q 156 947 115 947 q 210 943 197 947 q 194 621 194 775 q 145 613 169 613 q 104 617 121 613 q 83 940 104 799 z "},"(":{"ha":429,"x_min":90,"x_max":388,"o":"m 388 999 q 204 457 204 756 q 388 -83 204 158 q 297 -103 326 -103 q 258 -101 268 -103 q 90 458 90 149 q 258 1017 90 767 q 297 1018 268 1018 q 388 999 326 1018 z "},")":{"ha":429,"x_min":42,"x_max":339,"o":"m 42 999 q 132 1018 103 1018 q 171 1017 161 1018 q 339 458 339 767 q 171 -101 339 149 q 132 -103 161 -103 q 42 -83 103 -103 q 225 457 225 158 q 42 999 225 756 z "},"*":{"ha":553,"x_min":53,"x_max":497,"o":"m 219 931 q 283 938 249 938 q 329 931 317 938 q 317 771 319 854 q 465 835 393 799 q 483 795 471 825 q 497 729 496 765 q 335 693 417 719 q 446 569 389 622 q 357 504 386 510 q 272 646 307 600 q 192 507 233 592 q 129 541 153 524 q 101 568 106 558 q 208 694 165 635 q 53 729 136 718 q 67 797 54 765 q 85 835 81 829 q 238 769 160 796 q 219 931 236 836 z "},"+":{"ha":835,"x_min":121,"x_max":714,"o":"m 360 742 q 426 751 390 751 q 482 747 463 751 q 469 635 475 724 q 463 500 463 547 q 598 506 510 500 q 710 519 686 513 q 714 464 714 500 q 704 397 714 428 q 463 410 599 407 q 475 168 463 260 q 408 158 444 158 q 353 163 372 158 q 372 410 368 224 q 125 390 186 406 q 121 446 121 410 q 131 513 121 482 q 372 500 222 500 q 360 742 369 636 z "},",":{"ha":363,"x_min":97,"x_max":293,"o":"m 104 -211 q 97 -177 97 -190 q 101 -143 97 -164 q 194 -47 194 -143 q 158 -8 194 -12 q 106 60 106 -4 q 128 134 106 108 q 211 160 151 160 q 293 49 293 160 q 249 -137 293 -62 q 104 -211 204 -211 z "},"-":{"ha":492,"x_min":83,"x_max":408,"o":"m 92 272 q 83 315 83 292 q 92 372 83 339 q 400 401 354 390 q 408 358 408 382 q 400 301 408 335 q 92 272 138 283 z "},".":{"ha":375,"x_min":125,"x_max":306,"o":"m 306 76 q 281 7 306 35 q 204 -21 256 -21 q 125 60 125 -21 q 226 160 125 160 q 306 76 306 160 z "},"/":{"ha":786,"x_min":133,"x_max":674,"o":"m 225 -64 q 133 -37 171 -64 q 546 953 342 382 q 602 956 571 956 q 674 931 633 956 q 260 -61 468 525 q 225 -64 235 -64 z "},":":{"ha":367,"x_min":121,"x_max":301,"o":"m 301 76 q 276 7 301 35 q 200 -21 251 -21 q 121 60 121 -21 q 222 160 121 160 q 301 76 301 160 m 301 581 q 276 511 301 539 q 200 483 251 483 q 121 564 121 483 q 222 664 121 664 q 301 581 301 664 z "},";":{"ha":376,"x_min":113,"x_max":308,"o":"m 301 581 q 276 511 301 539 q 200 483 251 483 q 121 564 121 483 q 222 664 121 664 q 301 581 301 664 m 119 -211 q 113 -177 113 -190 q 117 -143 113 -164 q 210 -47 210 -143 q 174 -8 210 -12 q 121 60 121 -4 q 144 134 121 108 q 226 160 167 160 q 308 49 308 160 q 264 -137 308 -62 q 119 -211 219 -211 z "},"<":{"ha":835,"x_min":93,"x_max":664,"o":"m 103 399 q 93 453 93 418 q 103 510 93 489 q 511 719 275 575 q 611 786 592 768 q 641 737 624 771 q 664 675 658 703 q 403 553 558 633 q 217 454 249 472 q 414 349 282 418 q 664 233 546 281 q 641 172 658 206 q 611 122 624 138 q 511 189 592 140 q 103 399 279 331 z "},"=":{"ha":835,"x_min":121,"x_max":714,"o":"m 704 536 q 456 549 576 549 q 243 542 336 549 q 125 529 150 536 q 121 584 121 547 q 131 651 121 621 q 363 639 226 639 q 710 658 640 639 q 714 603 714 640 q 704 536 714 567 m 704 258 q 456 271 576 271 q 243 265 336 271 q 125 251 150 258 q 121 307 121 271 q 131 374 121 343 q 363 361 226 361 q 710 381 640 361 q 714 326 714 363 q 704 258 714 289 z "},">":{"ha":835,"x_min":93,"x_max":664,"o":"m 654 510 q 664 453 664 489 q 654 399 664 418 q 244 189 478 331 q 146 122 165 140 q 116 172 133 138 q 93 233 99 206 q 343 349 211 281 q 540 454 475 418 q 388 535 476 490 q 93 675 211 628 q 116 737 99 703 q 146 786 133 771 q 244 719 165 768 q 654 510 478 578 z "},"?":{"ha":638,"x_min":111,"x_max":563,"o":"m 412 824 q 394 840 412 824 q 326 857 376 857 q 246 831 276 857 q 258 776 258 810 q 238 717 258 743 q 176 692 217 692 q 111 770 111 692 q 178 892 111 849 q 331 935 244 935 q 490 882 418 935 q 563 738 563 829 q 482 579 563 650 q 414 522 449 550 q 333 397 333 458 q 376 288 333 335 q 292 236 342 242 q 239 402 239 333 q 314 550 239 471 q 358 595 325 563 q 404 644 390 628 q 447 743 447 696 q 412 824 447 790 m 414 76 q 389 7 414 35 q 313 -21 364 -21 q 233 60 233 -21 q 335 160 233 160 q 414 76 414 160 z "},"@":{"ha":1192,"x_min":83,"x_max":1108,"o":"m 751 -47 q 757 -92 757 -58 q 746 -156 757 -125 q 499 -190 646 -190 q 188 -83 293 -190 q 83 236 83 25 q 234 714 83 546 q 663 882 385 882 q 994 770 879 882 q 1108 447 1108 658 q 1011 163 1108 283 q 781 42 914 42 q 699 135 718 42 q 497 42 594 42 q 387 99 425 42 q 349 265 349 157 q 422 549 349 442 q 617 657 496 657 q 854 625 739 657 q 794 197 794 372 q 835 126 794 126 q 948 226 896 126 q 1000 443 1000 326 q 916 712 1000 625 q 654 799 832 799 q 315 655 432 799 q 197 240 197 511 q 483 -101 197 -101 q 751 -47 593 -101 m 736 558 q 610 588 678 588 q 499 500 542 588 q 456 275 456 413 q 544 138 456 138 q 620 158 578 138 q 696 213 663 179 q 736 558 701 254 z "},"A":{"ha":779,"x_min":-1,"x_max":781,"o":"m 214 808 q 210 851 210 825 q 211 886 210 878 q 393 901 333 901 q 494 888 453 901 q 726 81 528 626 l 778 76 q 781 34 781 46 q 776 -1 781 22 q 656 0 738 0 q 542 -1 574 0 q 538 38 538 19 q 540 76 538 57 l 589 81 q 567 177 582 114 q 550 247 551 240 q 378 251 471 251 q 206 246 286 251 l 167 81 l 219 76 q 222 34 222 46 q 218 -1 222 22 q 109 0 185 0 q 3 -1 33 0 q -1 38 -1 19 q 1 76 -1 57 l 50 81 q 269 804 217 538 l 214 808 m 231 343 q 372 342 278 342 q 525 346 467 342 q 388 803 460 593 l 379 803 q 231 343 297 604 z "},"B":{"ha":799,"x_min":90,"x_max":743,"o":"m 150 85 q 163 460 163 226 q 149 804 163 694 l 94 808 q 90 851 90 825 q 92 886 90 878 q 250 899 181 888 q 397 910 319 910 q 610 845 538 910 q 683 650 683 781 q 594 453 683 519 q 743 240 743 393 q 663 45 743 111 q 425 -21 582 -21 q 263 -10 338 -21 q 92 3 131 0 q 90 36 90 11 q 94 81 90 61 l 150 85 m 347 517 q 437 496 378 496 q 529 535 496 496 q 563 655 563 575 q 518 783 563 735 q 392 831 474 831 q 278 806 340 831 q 267 469 267 690 q 278 107 267 249 q 426 75 360 75 q 622 240 622 75 q 493 410 622 379 q 412 403 451 403 q 318 424 372 403 q 347 517 318 488 z "},"C":{"ha":744,"x_min":76,"x_max":688,"o":"m 615 625 q 549 651 572 625 q 525 720 525 678 q 543 786 525 763 q 421 828 499 828 q 249 733 307 828 q 190 453 190 638 q 421 82 190 82 q 534 109 476 82 q 632 181 592 136 q 688 71 675 146 q 421 -21 564 -21 q 158 92 239 -21 q 76 442 76 204 q 421 910 76 910 q 606 855 525 910 q 688 713 688 800 q 615 625 688 625 z "},"D":{"ha":843,"x_min":90,"x_max":781,"o":"m 415 -21 q 252 -11 328 -21 q 92 3 176 -1 q 90 36 90 11 q 94 81 90 61 l 150 85 q 163 460 163 226 q 149 804 163 694 l 94 808 q 90 851 90 825 q 92 886 90 878 q 257 899 183 888 q 415 910 331 910 q 686 791 592 910 q 781 451 781 672 q 415 -21 781 -21 m 415 78 q 598 174 535 78 q 661 451 661 269 q 597 730 661 632 q 414 828 533 828 q 276 801 344 828 q 267 458 267 683 q 278 107 267 233 q 415 78 343 78 z "},"E":{"ha":721,"x_min":90,"x_max":644,"o":"m 513 564 q 554 567 543 567 q 590 563 565 567 q 589 451 589 519 q 590 363 589 383 q 550 358 569 358 q 513 361 531 358 l 508 410 q 385 413 433 413 q 261 410 336 413 q 271 106 261 228 q 409 101 319 101 q 550 108 499 101 l 554 203 q 598 207 578 207 q 632 206 618 207 q 644 0 633 97 l 638 -7 q 340 0 569 0 q 97 -1 110 0 q 93 38 93 19 q 96 76 93 57 l 144 81 q 157 470 157 296 q 140 807 157 644 l 93 811 q 90 849 90 829 q 94 889 90 868 q 349 888 129 888 q 631 900 568 888 l 638 893 q 625 696 626 771 q 590 694 611 694 q 547 699 569 694 l 543 793 q 396 797 472 797 q 269 793 319 797 q 261 507 261 706 q 351 506 283 506 q 508 511 419 506 l 513 564 z "},"F":{"ha":665,"x_min":90,"x_max":624,"o":"m 499 550 q 540 553 529 553 q 576 549 551 553 q 575 443 575 507 q 576 349 575 379 q 536 344 556 344 q 499 347 517 344 l 494 396 q 379 399 419 399 q 261 396 339 399 q 274 81 264 185 l 350 75 l 353 42 q 349 -1 353 19 q 219 0 313 0 q 96 -1 125 0 q 92 38 92 19 q 94 76 92 57 l 146 81 q 157 431 157 217 q 140 807 157 644 l 93 811 q 90 849 90 829 q 94 889 90 868 q 342 888 129 888 q 617 900 554 888 l 624 893 q 611 696 613 771 q 576 694 597 694 q 533 699 556 694 l 529 793 q 391 797 458 797 q 269 793 324 797 q 261 492 261 701 l 329 492 q 494 497 406 492 l 499 550 z "},"G":{"ha":792,"x_min":76,"x_max":715,"o":"m 701 71 q 410 -21 578 -21 q 159 93 242 -21 q 76 442 76 207 q 425 910 76 910 q 590 872 522 910 q 688 763 658 833 q 696 708 696 738 q 624 625 696 625 q 557 651 581 625 q 533 719 533 678 q 550 785 533 761 q 425 828 506 828 q 250 733 310 828 q 190 453 190 638 q 421 82 190 82 q 611 146 533 82 q 601 336 610 257 q 378 321 435 331 q 371 393 371 358 q 372 440 371 428 q 550 429 443 429 q 715 433 657 429 q 701 71 701 286 z "},"H":{"ha":899,"x_min":90,"x_max":808,"o":"m 319 76 q 322 38 322 54 q 318 -1 322 22 q 206 0 269 0 q 94 -1 142 0 q 90 35 90 19 q 93 76 90 51 l 142 81 q 153 463 153 231 q 140 811 153 696 l 93 815 q 90 853 90 838 q 94 893 90 869 q 207 892 143 892 q 318 893 271 892 q 322 856 322 872 q 319 815 322 840 l 267 811 q 257 499 257 689 q 438 490 332 490 q 639 501 543 490 q 626 811 636 722 l 579 815 q 576 853 576 838 q 581 893 576 869 q 693 892 629 892 q 804 893 757 892 q 808 856 808 872 q 806 815 808 840 l 753 811 q 743 463 743 699 q 756 81 743 226 l 806 76 q 808 38 808 54 q 804 -1 808 22 q 692 0 756 0 q 581 -1 628 0 q 576 35 576 19 q 579 76 576 51 l 628 81 q 639 390 636 201 q 438 400 550 400 q 257 390 325 400 q 269 81 260 193 l 319 76 z "},"I":{"ha":440,"x_min":104,"x_max":336,"o":"m 281 811 q 271 463 271 699 q 283 81 271 226 l 333 76 q 336 38 336 54 q 332 -1 336 22 q 219 0 283 0 q 108 -1 156 0 q 104 35 104 19 q 107 76 104 51 l 156 81 q 167 463 167 231 q 154 811 167 696 l 107 815 q 104 853 104 838 q 108 893 104 869 q 221 892 157 892 q 332 893 285 892 q 336 856 336 872 q 333 815 336 840 l 281 811 z "},"J":{"ha":390,"x_min":-162,"x_max":314,"o":"m 85 815 q 82 857 82 846 q 86 893 82 868 q 199 892 124 892 q 310 893 275 892 q 314 862 314 872 q 311 815 314 851 l 263 811 q 253 354 253 679 l 253 142 q 206 -166 253 -82 q 32 -250 158 -250 q -71 -232 -17 -250 q -162 -186 -125 -214 q -143 -125 -157 -153 q -118 -86 -129 -97 l -107 -76 q 22 -147 -54 -147 q 124 -81 99 -147 q 149 168 149 -15 l 149 403 q 136 811 149 689 l 85 815 z "},"K":{"ha":739,"x_min":90,"x_max":738,"o":"m 479 814 q 476 856 476 844 q 481 892 476 867 q 597 890 514 890 q 710 892 679 890 q 714 860 714 871 q 711 814 714 850 l 660 810 l 389 489 q 575 210 529 275 q 669 88 621 144 l 735 83 q 738 42 738 61 q 733 3 738 22 l 568 -4 q 394 283 558 42 q 318 399 325 386 l 258 322 q 269 81 261 181 l 319 76 q 322 34 322 46 q 318 -1 322 22 q 204 0 279 0 q 94 -1 129 0 q 90 38 90 19 q 93 76 90 57 l 142 81 q 153 466 153 233 q 140 811 153 699 l 93 815 q 90 857 90 846 q 94 893 90 868 q 208 892 132 892 q 318 893 283 892 q 322 862 322 872 q 319 815 322 851 l 267 811 q 257 443 257 689 q 531 810 478 725 l 479 814 z "},"L":{"ha":615,"x_min":90,"x_max":614,"o":"m 142 81 q 154 485 154 272 q 142 811 154 697 l 94 815 q 92 853 92 838 q 96 893 92 869 q 208 892 144 892 q 319 893 272 892 q 324 856 324 872 q 321 815 324 840 l 268 811 q 258 452 258 681 q 268 106 258 224 q 394 101 311 101 q 519 108 476 101 l 524 203 q 566 207 547 207 q 601 206 585 207 q 614 0 606 100 l 607 -7 q 342 0 542 0 q 94 -1 142 0 q 90 35 90 19 q 93 76 90 51 l 142 81 z "},"M":{"ha":1097,"x_min":76,"x_max":1021,"o":"m 993 886 q 994 851 994 875 q 990 808 994 828 l 938 804 q 936 689 936 765 q 967 81 936 349 l 1018 76 q 1021 38 1021 54 q 1017 -1 1021 22 q 904 0 968 0 q 793 -1 840 0 q 789 35 789 19 q 792 76 789 51 l 838 81 q 840 309 840 181 q 828 667 840 438 q 758 525 814 638 q 589 163 635 279 q 530 151 561 151 q 488 153 499 151 q 349 435 439 269 q 243 632 260 601 q 232 298 232 435 q 235 81 232 161 l 286 76 q 289 38 289 54 q 285 -1 289 22 q 182 0 240 0 q 81 -1 124 0 q 76 35 76 19 q 79 76 76 51 l 128 81 q 157 679 157 333 q 153 804 157 746 l 101 808 q 97 851 97 828 q 99 886 97 875 q 271 893 213 889 q 551 292 294 765 q 800 893 764 707 q 993 886 851 889 z "},"N":{"ha":903,"x_min":83,"x_max":819,"o":"m 671 201 q 675 507 675 318 q 663 811 675 696 l 611 815 q 608 853 608 838 q 613 893 608 869 q 715 892 657 892 q 815 893 772 892 q 819 856 819 872 q 817 815 819 840 l 768 811 q 758 388 758 699 q 782 3 758 78 q 722 -11 740 -11 q 656 -8 703 -11 q 574 148 646 35 q 394 418 501 261 q 239 653 286 575 q 238 410 238 593 q 250 81 238 226 l 301 76 q 304 38 304 54 q 300 -1 304 22 q 197 0 256 0 q 96 -1 139 0 q 92 35 92 19 q 94 76 92 51 l 143 81 q 154 460 154 231 q 142 804 154 690 l 88 808 q 83 851 83 828 q 85 886 83 875 q 260 893 203 889 q 410 593 286 793 q 671 201 533 393 z "},"O":{"ha":835,"x_min":76,"x_max":758,"o":"m 76 454 q 417 910 76 910 q 758 454 758 910 q 752 308 758 371 q 724 181 746 246 q 667 74 703 115 q 567 6 631 32 q 417 -21 504 -21 q 267 6 331 -21 q 168 74 204 32 q 110 181 132 115 q 83 308 89 246 q 76 454 76 371 m 300 113 q 417 82 347 82 q 535 113 488 82 q 607 200 583 143 q 649 453 649 299 q 417 828 649 828 q 186 453 186 828 q 300 113 186 185 z "},"P":{"ha":738,"x_min":90,"x_max":710,"o":"m 346 460 q 442 419 386 419 q 533 454 499 419 q 589 624 589 511 q 406 831 589 831 q 275 800 347 831 q 265 458 265 690 q 278 81 265 226 l 357 75 q 360 35 360 53 q 356 -1 360 17 q 226 0 306 0 q 103 -1 146 0 q 99 35 99 19 q 101 76 99 51 l 150 81 q 161 460 161 229 q 147 804 161 692 l 94 808 q 90 851 90 828 q 92 886 90 875 q 251 899 150 889 q 407 910 322 910 q 640 835 571 910 q 710 627 710 761 q 640 410 710 493 q 426 326 569 326 q 317 347 371 326 q 326 417 317 385 q 346 460 336 449 z "},"Q":{"ha":835,"x_min":76,"x_max":892,"o":"m 650 -236 q 375 -19 468 -236 q 106 192 164 -4 q 76 454 76 292 q 417 910 76 910 q 758 454 758 910 q 749 288 758 358 q 711 147 739 217 q 488 -15 657 10 q 656 -139 540 -139 q 756 -110 704 -139 q 843 -33 807 -82 q 892 -151 881 -71 q 650 -236 788 -236 m 300 113 q 417 82 347 82 q 535 113 488 82 q 607 200 583 143 q 649 453 649 299 q 417 828 649 828 q 186 453 186 828 q 300 113 186 185 z "},"R":{"ha":783,"x_min":90,"x_max":763,"o":"m 346 485 q 448 447 386 447 q 549 499 510 447 q 589 638 589 551 q 406 831 589 831 q 275 803 343 831 q 265 460 265 682 q 278 81 265 238 l 329 76 q 332 34 332 46 q 328 -1 332 22 q 210 0 288 0 q 103 -1 132 0 q 99 38 99 19 q 101 76 99 57 l 150 81 q 161 464 161 233 q 147 804 161 694 l 94 808 q 90 851 90 825 q 92 886 90 878 q 256 899 185 889 q 407 910 326 910 q 710 638 710 910 q 656 457 710 528 q 504 368 601 386 q 694 88 642 150 l 760 83 q 763 42 763 61 q 758 3 763 24 q 582 -4 632 -1 l 576 11 q 519 133 553 69 q 376 365 485 196 q 317 381 347 367 q 326 441 317 408 q 346 485 335 474 z "},"S":{"ha":667,"x_min":44,"x_max":614,"o":"m 117 271 q 183 244 160 271 q 207 180 207 218 q 194 118 207 142 q 335 68 256 68 q 456 105 415 68 q 496 206 496 142 q 451 315 496 269 q 344 392 407 361 q 218 456 281 422 q 111 547 156 490 q 67 682 67 604 q 138 849 67 789 q 319 910 208 910 q 512 857 431 910 q 593 715 593 804 q 521 625 593 625 q 454 651 478 625 q 431 719 431 678 q 447 783 431 761 q 328 828 399 828 q 222 792 257 828 q 186 701 186 756 q 218 609 186 647 q 297 547 250 571 q 400 491 344 522 q 503 429 456 460 q 582 347 550 399 q 614 228 614 294 q 538 49 614 118 q 344 -21 463 -21 q 135 34 226 -21 q 44 188 44 89 q 117 271 44 271 z "},"T":{"ha":668,"x_min":21,"x_max":647,"o":"m 392 797 q 382 449 382 689 q 393 81 382 210 l 474 72 q 476 37 476 50 q 472 -1 476 24 q 328 0 422 0 q 192 -1 235 0 q 188 33 188 19 q 190 72 188 47 l 267 81 q 278 458 278 229 q 265 797 278 686 q 115 788 211 796 l 111 685 q 69 681 89 681 q 33 682 50 681 q 21 893 29 796 l 28 900 q 357 888 131 888 q 640 900 583 888 l 647 893 q 635 696 638 786 q 599 694 618 694 q 557 699 581 694 l 553 792 q 392 797 494 794 z "},"U":{"ha":894,"x_min":76,"x_max":818,"o":"m 671 383 q 657 811 671 683 l 608 815 q 606 853 606 838 q 610 893 606 869 q 713 892 654 892 q 814 893 771 892 q 818 856 818 872 q 815 815 818 840 l 769 811 q 758 488 758 675 q 753 245 758 301 q 728 135 747 189 q 676 49 710 81 q 451 -21 604 -21 q 194 89 256 -21 q 153 214 164 147 q 143 482 143 281 q 129 811 143 683 l 79 815 q 76 853 76 838 q 81 893 76 869 q 193 892 129 892 q 304 893 257 892 q 308 856 308 872 q 306 815 308 840 l 258 811 q 247 383 247 675 q 290 155 247 228 q 461 82 333 82 q 630 155 589 82 q 671 383 671 228 z "},"V":{"ha":790,"x_min":1,"x_max":789,"o":"m 4 815 q 1 853 1 838 q 6 893 1 869 q 127 892 54 892 q 253 893 200 892 q 257 856 257 872 q 254 815 257 840 l 206 811 q 290 456 235 653 q 403 121 346 260 l 411 121 q 519 456 461 243 q 600 811 576 668 l 549 815 q 546 848 546 826 q 550 893 546 869 q 671 892 600 892 q 785 893 742 892 q 789 858 789 872 q 786 815 789 843 l 738 811 q 587 383 675 644 q 468 0 499 122 q 377 -12 418 -12 q 324 -11 336 -12 q 56 811 181 501 l 4 815 z "},"W":{"ha":1131,"x_min":1,"x_max":1129,"o":"m 4 815 q 1 853 1 838 q 6 893 1 869 q 129 892 54 892 q 251 893 204 892 q 256 851 256 872 q 253 815 256 831 l 204 811 q 361 121 269 371 l 369 121 q 452 413 413 226 q 513 764 492 600 q 581 781 554 781 q 631 778 608 781 q 783 121 693 356 l 792 121 q 881 455 839 253 q 939 811 922 657 l 889 815 q 886 848 886 826 q 890 893 886 869 q 1011 892 940 892 q 1125 893 1082 892 q 1129 858 1129 872 q 1126 815 1129 843 l 1078 811 q 961 413 1038 685 q 849 0 885 142 q 758 -12 799 -12 q 704 -11 717 -12 q 638 240 685 56 q 569 510 592 425 l 563 510 q 426 0 469 172 q 335 -12 376 -12 q 282 -11 294 -12 q 191 341 276 7 q 56 811 106 675 l 4 815 z "},"X":{"ha":746,"x_min":21,"x_max":725,"o":"m 261 76 q 264 44 264 65 q 260 -1 264 22 q 139 0 210 0 q 25 -1 68 0 q 21 34 21 19 q 24 76 21 49 l 71 81 q 310 460 221 299 q 93 811 214 626 l 43 815 q 40 853 40 838 q 44 893 40 869 q 169 892 93 892 q 297 893 244 892 q 301 856 301 872 q 299 815 301 840 l 249 811 q 388 549 313 686 q 517 811 454 654 l 465 815 q 463 848 463 826 q 467 893 463 869 q 588 892 517 892 q 701 893 658 892 q 706 858 706 872 q 703 815 706 843 l 653 811 q 436 461 526 625 q 671 81 546 268 l 722 76 q 725 38 725 54 q 721 -1 725 22 q 597 0 672 0 q 468 -1 521 0 q 464 35 464 19 q 467 76 464 51 l 515 81 q 361 368 442 225 q 210 81 265 210 l 261 76 z "},"Y":{"ha":688,"x_min":1,"x_max":686,"o":"m 456 815 q 453 853 453 838 q 457 893 453 869 q 567 892 501 892 q 682 893 633 892 q 686 849 686 869 q 683 815 686 829 l 635 811 q 410 269 444 401 q 421 81 414 164 l 471 76 q 474 38 474 54 q 469 -1 474 22 q 357 0 421 0 q 246 -1 293 0 q 242 35 242 19 q 244 76 242 51 l 293 81 q 303 272 301 201 q 108 708 267 392 q 56 811 64 794 l 4 815 q 1 853 1 838 q 6 893 1 869 q 126 892 54 892 q 244 893 197 892 q 249 856 249 872 q 246 815 249 840 l 196 811 q 283 579 222 713 q 361 407 344 446 l 367 407 q 446 595 404 479 q 507 811 488 711 l 456 815 z "},"Z":{"ha":675,"x_min":42,"x_max":633,"o":"m 219 106 q 351 101 276 101 q 539 111 425 101 l 543 207 q 585 211 567 211 q 621 210 604 211 q 633 -1 625 96 l 626 -8 q 349 4 528 4 q 51 -6 169 4 q 42 44 43 15 q 264 419 101 139 q 486 796 426 699 q 356 797 439 797 q 158 788 272 797 l 154 685 q 113 681 132 681 q 76 682 93 681 q 64 893 72 796 l 71 900 q 372 888 174 888 q 626 896 569 888 q 633 843 633 882 q 411 444 574 731 q 219 106 249 158 z "},"[":{"ha":457,"x_min":104,"x_max":429,"o":"m 418 22 q 429 -44 429 -14 q 424 -100 429 -75 q 265 -83 360 -83 q 104 -90 171 -83 q 126 482 126 96 q 104 1006 126 868 q 265 999 171 999 q 424 1015 360 999 q 429 960 429 990 q 418 893 429 929 q 243 904 353 904 q 235 455 235 817 q 243 11 235 93 q 418 22 353 11 z "},"\\":{"ha":786,"x_min":133,"x_max":674,"o":"m 133 931 q 210 956 174 956 q 260 954 247 956 q 674 -37 463 389 q 582 -64 636 -64 q 547 -61 572 -64 q 133 931 339 525 z "},"]":{"ha":457,"x_min":28,"x_max":353,"o":"m 39 893 q 28 960 28 929 q 33 1015 28 990 q 192 999 97 999 q 353 1006 286 999 q 331 433 331 819 q 353 -90 331 47 q 192 -83 286 -83 q 33 -100 97 -83 q 28 -44 28 -75 q 39 22 28 -14 q 214 11 104 11 q 222 460 222 99 q 214 904 222 822 q 39 893 104 904 z "},"^":{"ha":835,"x_min":111,"x_max":642,"o":"m 318 864 q 376 872 335 872 q 435 864 417 872 q 549 629 467 782 q 642 457 617 492 q 603 433 632 449 q 553 415 574 418 q 476 576 514 510 q 376 760 396 728 q 200 415 271 581 q 150 433 179 418 q 111 457 121 449 q 204 629 139 499 q 318 864 286 782 z "},"_":{"ha":697,"x_min":28,"x_max":669,"o":"m 658 -124 q 384 -111 522 -111 q 153 -118 246 -111 q 33 -131 60 -125 q 28 -78 28 -111 q 39 -8 28 -44 q 282 -21 142 -21 q 531 -15 422 -21 q 664 -1 639 -8 q 669 -57 669 -26 q 658 -124 669 -87 z "},"`":{"ha":589,"x_min":153,"x_max":436,"o":"m 408 733 q 153 838 236 804 q 167 899 154 876 q 208 947 179 922 q 341 848 272 893 q 436 785 410 803 q 408 733 429 756 z "},"a":{"ha":657,"x_min":69,"x_max":599,"o":"m 539 479 l 533 279 q 544 94 533 185 l 596 90 q 599 49 599 68 q 594 10 599 31 q 438 -4 554 8 q 422 61 428 22 q 235 -21 314 -21 q 113 30 157 -21 q 69 174 69 81 q 128 322 69 268 q 277 376 188 376 q 431 343 367 376 q 432 393 432 358 q 403 541 432 496 q 317 586 375 586 q 232 564 258 586 q 243 508 243 542 q 222 451 243 475 q 161 426 200 426 q 96 503 96 426 q 154 622 96 581 q 318 664 213 664 q 481 615 424 664 q 539 479 539 565 m 425 256 q 303 304 368 304 q 178 193 178 304 q 276 79 178 79 q 353 98 313 79 q 418 144 394 117 q 425 256 425 228 z "},"b":{"ha":668,"x_min":35,"x_max":599,"o":"m 481 376 q 363 575 481 575 q 201 485 278 575 l 201 111 q 336 79 265 79 q 481 376 481 79 m 201 569 q 397 664 299 664 q 547 583 496 664 q 599 358 599 503 q 531 71 599 163 q 319 -21 464 -21 q 79 15 229 -21 q 101 457 101 151 q 94 853 101 763 l 39 857 q 35 900 35 874 q 36 935 35 926 q 217 947 160 940 l 222 940 q 201 569 203 774 z "},"c":{"ha":597,"x_min":63,"x_max":542,"o":"m 468 426 q 408 451 429 426 q 386 510 386 475 q 396 564 386 546 q 324 588 365 588 q 176 326 176 588 q 214 143 176 207 q 320 79 251 79 q 490 165 389 79 q 542 56 531 124 q 304 -21 425 -21 q 123 67 183 -21 q 63 325 63 154 q 129 580 63 496 q 318 664 196 664 q 474 619 414 664 q 533 500 533 574 q 468 426 533 426 z "},"d":{"ha":693,"x_min":69,"x_max":638,"o":"m 468 631 l 469 718 q 464 853 469 801 l 408 857 q 404 900 404 874 q 406 935 404 926 q 586 947 529 940 l 592 940 q 571 472 571 758 q 583 93 571 185 l 635 90 q 638 45 638 60 q 633 10 638 31 q 482 -4 579 7 q 465 67 471 18 q 272 -21 369 -21 q 122 68 174 -21 q 69 320 69 157 q 135 574 69 483 q 325 664 201 664 q 468 631 394 664 m 326 582 q 188 306 188 582 q 219 144 188 201 q 306 86 250 86 q 388 110 343 86 q 467 169 433 133 q 469 542 469 342 q 326 582 381 582 z "},"e":{"ha":626,"x_min":63,"x_max":557,"o":"m 303 308 q 176 315 235 308 q 333 79 179 79 q 506 165 411 79 q 557 56 546 124 q 315 -21 443 -21 q 125 67 188 -21 q 63 326 63 156 q 133 581 63 497 q 332 664 203 664 q 490 606 428 664 q 553 463 553 547 q 539 342 554 378 q 303 308 435 308 m 322 586 q 178 396 193 586 q 315 389 240 389 q 432 403 390 389 q 438 454 438 438 q 406 551 438 515 q 322 586 375 586 z "},"f":{"ha":460,"x_min":47,"x_max":488,"o":"m 139 289 l 135 567 q 56 565 74 567 q 47 611 47 589 q 50 642 47 633 l 131 642 q 129 697 129 654 q 322 938 129 938 q 437 910 386 938 q 488 822 488 882 q 422 744 488 744 q 363 767 385 744 q 341 817 342 789 q 343 856 340 844 q 317 861 331 861 q 231 689 231 861 q 232 643 231 654 q 406 651 336 644 q 414 611 414 633 q 408 560 414 589 q 239 565 389 561 l 239 435 l 240 329 q 254 81 240 178 l 304 76 q 307 43 307 64 q 303 -1 307 22 q 189 0 264 0 q 79 -1 114 0 q 75 38 75 19 q 78 76 75 57 l 125 81 q 139 289 139 215 z "},"g":{"ha":647,"x_min":35,"x_max":611,"o":"m 306 664 q 331 663 322 664 q 521 796 418 796 q 611 708 611 796 q 551 647 611 647 q 481 710 490 647 q 406 650 440 710 q 540 428 540 606 q 497 247 540 319 q 306 167 449 167 q 208 181 246 167 q 165 68 179 129 q 215 64 189 64 q 321 74 242 64 q 435 83 400 83 q 551 47 507 83 q 596 -64 596 11 q 547 -194 596 -139 q 283 -292 463 -292 q 99 -261 163 -292 q 35 -147 35 -231 q 100 -21 35 -86 q 74 33 74 -1 q 144 214 74 107 q 71 428 71 274 q 306 664 71 664 m 183 426 q 183 344 183 426 q 306 263 183 263 q 428 426 428 263 q 306 590 428 590 q 183 426 183 590 m 147 -126 q 310 -215 147 -215 q 434 -185 379 -215 q 489 -93 489 -154 q 415 -25 489 -25 q 301 -34 379 -25 q 176 -43 224 -43 l 165 -43 q 147 -126 147 -82 z "},"h":{"ha":740,"x_min":72,"x_max":682,"o":"m 615 486 l 614 351 q 631 81 614 204 l 679 76 q 682 38 682 54 q 678 -1 682 22 q 563 0 629 0 q 450 -1 497 0 q 446 35 446 19 q 449 76 446 51 l 497 81 q 508 347 508 231 q 488 519 508 464 q 407 575 468 575 q 240 486 329 575 l 240 356 q 253 81 240 185 l 304 76 q 307 38 307 54 q 303 -1 307 22 q 190 0 254 0 q 79 -1 126 0 q 75 35 75 19 q 78 76 75 51 l 126 81 q 139 322 139 211 l 139 513 q 132 853 139 763 l 76 857 q 72 899 72 875 q 74 935 72 924 q 254 947 200 942 l 260 940 q 240 568 240 775 q 340 637 282 610 q 451 664 399 664 q 615 486 615 664 z "},"i":{"ha":365,"x_min":72,"x_max":307,"o":"m 126 81 q 139 330 139 217 q 128 565 139 443 l 76 569 q 72 615 72 593 q 74 647 72 636 q 246 660 154 650 l 253 653 q 240 378 240 571 q 253 81 240 185 l 304 76 q 307 38 307 54 q 303 -1 307 22 q 190 0 254 0 q 79 -1 126 0 q 75 42 75 19 q 78 76 75 64 l 126 81 m 267 851 q 178 765 267 765 q 108 836 108 765 q 197 924 108 924 q 267 851 267 924 z "},"j":{"ha":353,"x_min":-83,"x_max":269,"o":"m 243 356 l 247 -18 q 60 -292 247 -292 q -83 -247 -21 -292 q -37 -132 -83 -168 q 7 -172 -22 -154 q 64 -189 36 -189 q 142 6 142 -189 l 142 328 q 131 565 142 443 l 79 569 q 75 615 75 593 q 76 647 75 636 q 249 660 157 650 l 256 653 q 243 356 243 571 m 269 851 q 181 765 269 765 q 111 836 111 765 q 200 924 111 924 q 269 851 269 924 z "},"k":{"ha":661,"x_min":63,"x_max":643,"o":"m 129 322 l 129 513 q 122 853 129 763 l 67 857 q 63 899 63 875 q 64 935 63 924 q 244 947 190 942 l 250 940 q 231 585 231 775 l 231 356 q 243 81 231 185 l 294 76 q 297 38 297 54 q 293 -1 297 22 q 181 0 244 0 q 69 -1 117 0 q 65 35 65 19 q 68 76 65 51 l 117 81 q 129 322 129 211 m 442 649 q 526 647 476 647 q 614 649 575 647 q 618 609 618 631 q 615 571 618 588 l 556 567 q 467 464 531 536 q 372 356 403 392 q 581 81 507 164 l 640 76 q 643 38 643 60 q 639 -1 643 17 q 533 0 589 0 q 442 -1 478 0 q 426 81 436 57 q 253 315 378 176 l 257 329 q 425 567 367 463 q 442 649 436 594 z "},"l":{"ha":350,"x_min":63,"x_max":297,"o":"m 129 322 l 129 513 q 122 853 129 763 l 67 857 q 63 899 63 875 q 64 935 63 924 q 244 947 190 942 l 250 940 q 231 585 231 775 l 231 356 q 243 81 231 185 l 294 76 q 297 38 297 54 q 293 -1 297 22 q 181 0 244 0 q 69 -1 117 0 q 65 35 65 19 q 68 76 65 51 l 117 81 q 129 322 129 211 z "},"m":{"ha":1060,"x_min":72,"x_max":1001,"o":"m 933 465 l 932 351 q 949 81 932 206 l 999 76 q 1001 43 1001 64 q 997 -1 1001 22 q 881 0 958 0 q 769 -1 803 0 q 765 38 765 19 q 768 76 765 57 l 815 81 q 826 359 826 243 q 806 525 826 475 q 736 575 785 575 q 588 483 667 575 l 586 351 q 603 81 586 206 l 651 76 q 654 38 654 54 q 650 -1 654 22 q 533 0 611 0 q 422 -1 456 0 q 418 38 418 19 q 421 76 418 57 l 469 81 q 481 359 481 243 q 460 525 481 475 q 390 575 439 575 q 242 485 319 575 q 240 316 240 449 q 253 81 240 183 l 304 76 q 307 34 307 46 q 303 -1 307 22 q 189 0 264 0 q 79 -1 114 0 q 75 38 75 19 q 78 76 75 57 l 126 81 q 139 335 139 219 q 128 565 139 451 l 76 569 q 72 616 72 593 q 74 647 72 639 q 246 660 144 649 l 253 653 q 244 571 249 624 q 338 638 285 613 q 436 664 390 664 q 579 557 550 664 q 676 634 619 604 q 782 664 732 664 q 897 616 860 664 q 933 465 933 568 z "},"n":{"ha":740,"x_min":72,"x_max":682,"o":"m 615 486 l 614 351 q 631 81 614 206 l 679 76 q 682 34 682 46 q 678 -1 682 22 q 561 0 639 0 q 450 -1 483 0 q 446 38 446 19 q 449 76 446 57 l 497 81 q 508 359 508 243 q 485 525 508 475 q 407 575 463 575 q 242 485 332 575 q 240 316 240 449 q 253 81 240 183 l 304 76 q 307 34 307 46 q 303 -1 307 22 q 189 0 264 0 q 79 -1 114 0 q 75 38 75 19 q 78 76 75 57 l 126 81 q 139 335 139 219 q 128 565 139 451 l 76 569 q 72 616 72 593 q 74 647 72 639 q 246 660 144 649 l 253 653 q 244 569 250 636 q 344 638 288 613 q 451 664 401 664 q 615 486 615 664 z "},"o":{"ha":647,"x_min":63,"x_max":585,"o":"m 63 329 q 324 664 63 664 q 585 329 585 664 q 536 85 585 175 q 324 -21 481 -21 q 111 85 167 -21 q 63 329 63 175 m 176 333 q 176 206 176 333 q 324 79 176 79 q 471 333 471 79 q 324 586 471 586 q 176 333 176 586 z "},"p":{"ha":686,"x_min":51,"x_max":617,"o":"m 421 664 q 617 331 617 664 q 567 99 617 203 q 483 11 539 43 q 360 -21 428 -21 q 218 13 292 -21 q 231 -210 225 -161 l 282 -214 l 285 -250 q 281 -292 285 -278 q 166 -290 247 -290 q 57 -292 85 -290 q 53 -250 53 -268 q 56 -214 53 -232 l 107 -210 q 118 195 118 -58 q 107 565 118 449 l 56 569 q 51 609 51 582 q 53 647 51 636 q 224 660 117 649 l 231 653 q 224 574 225 613 q 421 664 319 664 m 347 79 q 499 349 499 79 q 444 556 499 513 q 379 575 419 575 q 294 549 339 575 q 219 485 250 522 q 217 111 217 369 q 347 79 297 79 z "},"q":{"ha":692,"x_min":69,"x_max":636,"o":"m 589 628 q 568 189 568 449 q 582 -210 568 -71 l 633 -214 q 636 -253 636 -239 q 632 -292 636 -267 q 517 -290 600 -290 q 406 -292 433 -290 q 401 -251 401 -269 q 404 -214 401 -232 l 454 -210 q 467 74 467 -74 q 270 -21 368 -21 q 121 60 172 -21 q 69 285 69 140 q 137 572 69 481 q 349 664 204 664 q 589 628 436 664 m 188 278 q 306 79 188 79 q 467 169 386 79 l 467 554 q 333 586 406 586 q 224 513 261 586 q 188 278 188 440 z "},"r":{"ha":482,"x_min":44,"x_max":476,"o":"m 99 81 q 111 335 111 219 q 100 565 111 451 l 49 569 q 44 615 44 592 q 46 647 44 639 q 218 660 117 649 l 225 653 q 217 571 224 644 q 291 638 249 611 q 374 664 333 664 q 446 635 415 664 q 476 558 476 606 q 411 481 476 481 q 351 505 374 481 q 329 569 329 529 q 319 571 326 571 q 214 493 268 571 q 213 319 213 454 q 225 81 213 183 l 276 76 q 279 34 279 46 q 275 -1 279 22 q 161 0 236 0 q 51 -1 86 0 q 47 38 47 19 q 50 76 47 57 l 99 81 z "},"s":{"ha":560,"x_min":40,"x_max":501,"o":"m 279 664 q 328 664 279 664 q 434 618 376 664 q 492 499 492 572 q 426 426 492 426 q 366 451 388 426 q 344 508 344 475 q 356 564 344 542 q 276 590 322 590 q 201 568 231 590 q 171 503 171 546 q 205 428 171 460 q 288 376 239 396 q 385 334 336 356 q 467 273 433 313 q 501 175 501 233 q 441 32 501 85 q 276 -21 381 -21 q 106 24 172 -21 q 40 140 40 68 l 40 146 q 106 221 40 221 q 166 197 144 221 q 188 140 188 172 q 181 90 188 108 q 269 72 208 72 q 360 93 329 72 q 392 151 392 114 q 358 217 392 188 q 275 266 324 246 q 178 309 226 286 q 95 375 129 332 q 61 478 61 418 q 122 614 61 564 q 279 664 182 664 z "},"t":{"ha":426,"x_min":14,"x_max":419,"o":"m 104 225 q 107 535 104 225 q 106 567 107 556 q 22 565 47 567 q 14 609 14 588 q 17 642 14 631 l 101 642 l 94 744 q 167 756 129 756 q 231 750 206 756 l 218 643 q 372 651 294 644 q 381 612 381 633 q 375 560 381 590 q 213 565 324 563 q 210 483 210 538 l 210 201 q 213 142 210 165 q 231 101 217 119 q 274 82 246 82 q 390 125 335 82 q 419 13 419 83 q 287 -21 343 -21 q 197 -6 231 -21 q 146 28 164 8 q 118 85 128 49 q 104 225 104 136 z "},"u":{"ha":697,"x_min":49,"x_max":639,"o":"m 114 179 l 115 328 q 104 565 115 451 l 53 569 q 49 615 49 592 q 50 647 49 639 q 222 660 121 649 l 229 653 q 217 360 217 571 l 217 294 q 238 128 217 178 q 311 79 260 79 q 468 164 383 79 q 471 288 471 196 l 471 328 q 460 565 471 451 l 408 569 q 404 616 404 593 q 406 647 404 639 q 578 660 476 649 l 585 653 q 572 360 572 571 l 572 315 q 585 93 572 201 l 636 90 q 639 45 639 60 q 635 10 639 31 q 483 -4 581 7 q 467 65 472 21 q 275 -21 363 -21 q 151 28 188 -21 q 114 179 114 76 z "},"v":{"ha":631,"x_min":-7,"x_max":624,"o":"m 388 571 q 385 608 385 585 q 389 649 385 631 q 505 647 431 647 q 619 649 579 647 q 624 610 624 631 q 621 571 624 589 l 575 567 q 360 0 400 160 q 295 -10 324 -10 q 257 -8 267 -10 q 42 567 178 272 l -4 571 q -7 609 -7 588 q -3 649 -7 631 q 117 647 38 647 q 239 649 197 647 q 243 609 243 631 q 240 571 243 588 l 183 567 q 311 154 211 388 l 317 154 q 390 344 353 224 q 446 567 428 464 l 388 571 z "},"w":{"ha":896,"x_min":-7,"x_max":889,"o":"m 390 569 q 462 579 432 579 q 517 575 492 579 q 596 154 544 347 l 601 154 q 665 343 633 224 q 710 567 696 463 l 653 571 q 650 608 650 585 q 654 649 650 631 q 770 647 696 647 q 885 649 844 647 q 889 610 889 631 q 886 571 889 589 l 839 567 q 639 0 678 153 q 574 -10 603 -10 q 536 -8 546 -10 q 444 390 521 100 l 439 390 q 325 0 360 151 q 260 -10 289 -10 q 222 -8 232 -10 q 146 269 197 104 q 42 567 94 433 l -4 571 q -7 609 -7 588 q -3 649 -7 631 q 118 647 38 647 q 240 649 199 647 q 244 609 244 631 q 242 571 244 588 l 186 567 q 282 154 206 410 l 288 154 q 350 352 318 224 q 390 569 382 481 z "},"x":{"ha":571,"x_min":0,"x_max":572,"o":"m 4 -1 l 0 35 q 3 76 0 58 l 64 81 q 235 317 128 174 q 156 439 208 356 q 76 565 104 522 l 17 569 q 14 608 14 586 q 18 649 14 631 q 118 647 63 647 q 210 649 174 647 q 226 565 214 589 q 300 413 299 415 q 376 567 350 496 l 331 571 q 328 608 328 585 q 332 649 328 631 q 443 647 369 647 q 557 649 517 647 q 561 610 561 631 q 558 571 561 589 l 497 567 q 344 331 386 393 q 428 203 374 288 q 510 81 483 119 l 569 76 q 572 38 572 60 q 568 -1 572 17 q 470 0 524 0 q 381 -1 417 0 q 362 88 375 60 q 278 243 349 117 q 250 194 268 225 q 186 81 210 128 l 231 76 q 233 40 233 63 q 229 -1 233 17 q 118 0 192 0 q 4 -1 44 0 z "},"y":{"ha":610,"x_min":-24,"x_max":603,"o":"m 367 571 q 364 608 364 585 q 368 649 364 631 q 484 647 410 647 q 599 649 558 647 q 603 610 603 631 q 600 571 603 589 l 558 567 q 462 288 521 465 q 373 26 403 110 q 317 -108 343 -57 q 261 -206 292 -160 q 123 -292 203 -292 q -24 -247 43 -292 q 22 -132 -18 -167 q 124 -189 64 -189 q 265 -8 188 -189 q 42 567 194 240 l -4 571 q -7 609 -7 588 q -3 649 -7 631 q 117 647 38 647 q 239 649 197 647 q 243 609 243 631 q 240 571 243 588 l 183 567 q 319 154 210 413 l 325 154 q 425 567 394 379 l 367 571 z "},"z":{"ha":556,"x_min":21,"x_max":508,"o":"m 418 178 q 460 182 440 182 q 496 181 479 182 q 508 -3 499 114 l 501 -10 q 278 3 414 3 q 31 -6 143 3 q 21 44 22 15 q 201 308 81 138 q 371 551 321 478 q 117 542 210 549 l 113 469 q 71 465 90 465 q 35 467 51 465 q 22 650 32 533 l 29 657 q 271 644 117 644 q 500 653 425 644 q 507 600 507 639 q 345 335 451 494 q 197 101 239 176 q 414 111 326 103 l 418 178 z "},"{":{"ha":478,"x_min":42,"x_max":450,"o":"m 247 817 l 264 610 q 240 512 264 556 q 175 463 217 468 l 175 454 q 240 405 217 449 q 264 307 264 361 l 247 100 q 263 28 247 47 q 324 8 278 8 q 439 24 369 8 q 450 -43 450 -12 q 444 -99 450 -74 q 290 -82 381 -82 q 167 -41 199 -82 q 136 74 136 0 l 151 285 q 131 378 151 343 q 51 421 110 413 q 42 458 42 435 q 51 496 42 482 q 131 539 110 504 q 151 632 151 574 l 136 843 q 167 958 136 917 q 290 999 199 999 q 444 1015 381 999 q 450 960 450 990 q 439 893 450 929 q 324 908 369 908 q 263 889 278 908 q 247 817 247 869 z "},"|":{"ha":365,"x_min":125,"x_max":240,"o":"m 129 -118 q 143 456 143 78 q 125 996 143 833 q 185 1013 161 1013 q 236 1008 208 1013 q 222 399 222 818 q 240 -106 222 -19 q 175 -122 200 -122 q 129 -118 150 -122 z "},"}":{"ha":478,"x_min":28,"x_max":436,"o":"m 231 100 l 214 307 q 238 405 214 361 q 303 454 261 449 l 303 463 q 238 512 261 468 q 214 610 214 556 l 231 817 q 215 889 231 869 q 154 908 200 908 q 39 893 108 908 q 28 960 28 929 q 33 1015 28 990 q 188 999 97 999 q 310 958 279 999 q 342 843 342 917 l 326 632 q 347 539 326 574 q 426 496 368 504 q 436 458 436 482 q 426 421 436 435 q 347 378 368 413 q 326 285 326 343 l 342 74 q 310 -41 342 0 q 188 -82 279 -82 q 33 -99 97 -82 q 28 -43 28 -74 q 39 24 28 -12 q 154 8 108 8 q 215 28 200 8 q 231 100 231 47 z "},"~":{"ha":835,"x_min":117,"x_max":719,"o":"m 697 400 q 600 446 663 446 q 418 406 538 446 q 233 367 299 367 q 117 404 167 367 q 136 510 117 458 q 234 464 171 464 q 417 503 297 464 q 603 543 538 543 q 719 506 669 543 q 697 400 719 458 z "},"¡":{"ha":375,"x_min":69,"x_max":250,"o":"m 207 122 q 243 -278 207 -133 q 163 -293 201 -293 q 90 -285 124 -293 q 118 303 118 -22 q 115 393 118 349 q 163 401 143 401 q 210 393 183 401 q 207 122 207 246 m 69 567 q 94 636 69 608 q 171 664 119 664 q 250 583 250 664 q 149 483 250 483 q 69 567 69 483 z "},"¢":{"ha":653,"x_min":56,"x_max":597,"o":"m 524 535 q 463 559 485 535 q 442 619 442 583 q 451 672 442 654 q 364 696 422 696 q 222 626 274 696 q 169 439 169 556 q 219 256 169 322 q 351 189 269 189 q 546 275 464 189 q 597 165 586 233 q 368 89 494 89 q 375 7 371 24 q 303 -11 335 -11 q 249 -7 272 -11 l 260 101 q 56 432 56 154 q 114 654 56 568 q 282 764 172 740 q 276 878 282 779 q 363 896 303 896 q 403 892 375 896 q 390 772 394 833 q 537 722 485 765 q 589 607 589 679 q 524 535 589 535 z "},"£":{"ha":758,"x_min":76,"x_max":686,"o":"m 189 299 q 185 382 189 340 l 88 382 q 76 425 76 407 q 81 460 76 443 l 176 460 q 156 682 156 625 q 224 861 156 797 q 417 925 293 925 q 571 886 506 925 q 663 778 636 847 q 671 724 671 753 q 599 640 671 640 q 532 667 556 640 q 508 735 508 693 q 525 800 508 778 q 416 843 482 843 q 314 798 350 843 q 278 685 278 753 q 290 460 278 617 q 543 471 450 463 q 553 422 553 453 q 547 374 553 390 q 296 381 390 381 q 299 256 299 311 q 281 93 299 201 l 413 93 q 563 100 467 93 q 681 113 658 107 q 686 56 686 86 q 675 -10 686 25 q 448 3 569 3 q 219 -4 326 3 q 90 -17 111 -11 q 76 60 76 21 l 160 100 q 189 299 189 189 z "},"¥":{"ha":686,"x_min":4,"x_max":689,"o":"m 458 815 q 456 853 456 838 q 460 893 456 869 q 570 892 504 892 q 685 893 636 892 q 689 849 689 869 q 686 815 689 829 l 638 811 q 592 711 635 804 q 524 563 549 618 q 626 568 592 565 q 636 520 636 549 q 631 471 636 492 q 488 476 586 474 q 439 351 461 413 l 625 351 q 636 310 636 329 q 632 274 636 290 q 413 272 490 274 q 424 81 417 165 l 474 76 q 476 38 476 54 q 472 -1 476 22 q 360 0 424 0 q 249 -1 296 0 q 244 35 244 19 q 247 76 244 51 l 296 81 q 306 271 304 201 q 86 263 175 268 q 76 310 76 282 q 82 360 76 339 q 276 353 185 354 q 222 479 269 372 l 88 479 q 76 521 76 501 q 81 557 76 540 l 186 557 q 125 676 171 586 l 58 811 l 7 815 q 4 853 4 838 q 8 893 4 869 q 128 892 57 892 q 247 893 200 892 q 251 856 251 872 q 249 815 251 840 l 199 811 q 286 579 225 713 q 364 407 347 446 l 369 407 q 449 595 407 479 q 510 811 490 711 l 458 815 z "},"¦":{"ha":365,"x_min":125,"x_max":240,"o":"m 240 -106 q 174 -122 197 -122 q 129 -118 150 -122 q 143 349 143 78 q 197 358 181 358 q 222 357 214 358 q 240 -106 222 -19 m 125 996 q 188 1013 160 1013 q 236 1008 215 1013 q 222 542 222 813 q 167 532 185 532 q 143 533 150 532 q 125 996 143 910 z "},"§":{"ha":667,"x_min":49,"x_max":618,"o":"m 514 625 q 447 651 471 625 q 424 721 424 678 q 442 786 424 764 q 328 828 400 828 q 222 792 257 828 q 186 700 186 756 q 218 609 186 644 q 298 554 250 574 q 402 510 346 535 q 506 460 458 486 q 586 384 554 435 q 618 264 618 333 q 538 97 618 153 q 618 -74 618 31 q 547 -235 618 -179 q 343 -292 475 -292 q 49 -186 158 -292 q 72 -125 54 -153 q 103 -86 89 -97 l 118 -76 q 343 -189 200 -189 q 456 -158 415 -189 q 496 -76 496 -128 q 451 10 496 -24 q 344 68 407 44 q 218 120 281 92 q 111 204 156 149 q 67 342 67 260 q 140 513 67 451 q 67 682 67 576 q 136 849 67 788 q 311 910 206 910 q 578 763 519 910 q 586 708 586 738 q 514 625 586 625 m 226 457 q 186 358 186 421 q 229 259 186 294 q 421 163 272 224 q 496 268 496 189 q 425 369 496 328 q 340 407 404 382 q 226 457 275 432 z "},"¨":{"ha":657,"x_min":153,"x_max":504,"o":"m 296 843 q 215 767 296 767 q 153 831 153 767 q 233 908 153 908 q 296 843 296 908 m 504 843 q 424 767 504 767 q 361 831 361 767 q 442 908 361 908 q 504 843 504 908 z "},"©":{"ha":856,"x_min":83,"x_max":772,"o":"m 456 997 q 699 914 626 997 q 772 659 772 831 q 683 391 772 488 q 413 294 594 294 q 157 382 231 294 q 83 640 83 469 q 99 776 83 717 q 153 888 114 835 q 456 997 233 997 m 460 936 q 157 651 157 936 q 215 421 157 486 q 396 356 272 356 q 624 436 550 356 q 699 660 699 517 q 641 870 699 804 q 460 936 583 936 m 522 707 q 478 726 493 707 q 463 769 463 744 q 472 808 463 794 q 424 824 453 824 q 319 649 319 824 q 424 475 319 475 q 525 528 479 475 q 563 457 556 501 q 424 408 497 408 q 283 472 319 408 q 247 649 247 535 q 424 878 247 878 q 523 846 479 878 q 567 760 567 814 q 522 707 567 707 z "},"ª":{"ha":454,"x_min":60,"x_max":410,"o":"m 394 582 l 396 556 q 393 532 396 549 q 335 527 371 531 q 283 522 299 524 q 276 561 279 535 q 176 518 229 518 q 96 551 122 518 q 69 639 69 583 q 206 758 69 758 q 282 742 247 758 q 285 793 285 772 q 219 886 285 886 q 167 869 186 886 q 174 842 174 856 q 126 789 174 789 q 85 835 85 789 q 228 935 85 935 q 322 906 286 935 q 358 819 358 876 l 354 701 q 364 583 354 653 l 394 582 m 68 364 q 60 402 60 381 q 68 453 60 424 q 401 485 344 471 q 410 440 410 460 q 401 392 410 421 q 68 364 115 374 m 206 708 q 147 649 147 708 q 197 590 147 590 q 275 624 247 590 q 279 685 279 678 q 206 708 247 708 z "},"«":{"ha":688,"x_min":42,"x_max":590,"o":"m 317 592 q 204 389 317 592 q 317 186 214 371 q 250 150 289 158 q 193 219 225 181 q 144 281 161 258 q 42 389 103 331 q 132 483 103 447 q 193 558 161 519 q 250 628 225 597 q 317 592 293 615 m 590 592 q 478 389 481 394 q 590 186 524 303 q 524 150 558 157 q 467 219 499 181 q 417 281 435 258 q 315 389 376 331 q 406 483 376 447 q 467 558 435 519 q 524 628 499 597 q 590 592 563 617 z "},"¬":{"ha":835,"x_min":121,"x_max":719,"o":"m 619 397 q 414 410 492 410 q 243 403 336 410 q 125 390 150 397 q 121 446 121 410 q 131 513 121 482 q 363 500 226 500 q 710 519 640 500 q 704 373 704 460 q 719 232 704 286 q 669 228 700 228 q 608 238 638 228 q 619 397 619 296 z "},"®":{"ha":856,"x_min":83,"x_max":772,"o":"m 456 997 q 699 914 626 997 q 772 659 772 831 q 683 391 772 488 q 413 294 594 294 q 157 382 231 294 q 83 640 83 469 q 99 776 83 717 q 153 888 114 835 q 456 997 233 997 m 460 936 q 157 651 157 936 q 215 421 157 486 q 396 356 272 356 q 624 436 550 356 q 699 660 699 517 q 641 870 699 804 q 460 936 583 936 m 397 464 q 399 440 399 456 q 396 414 399 424 q 324 415 367 415 q 254 414 282 415 q 250 440 250 428 q 251 464 250 453 l 283 465 q 290 639 290 538 q 285 801 290 740 l 250 804 q 247 834 247 821 q 249 854 247 847 q 315 867 257 856 q 417 878 374 878 q 538 842 501 878 q 574 747 574 806 q 545 649 574 688 q 461 601 517 610 q 546 469 490 553 l 585 467 q 586 444 586 458 q 585 417 586 429 q 483 413 507 414 q 382 603 418 544 q 397 658 382 643 q 439 650 415 650 q 481 676 463 650 q 499 738 499 703 q 417 824 499 824 q 361 814 386 824 q 357 656 357 763 q 364 465 357 549 l 397 464 z "},"¯":{"ha":649,"x_min":153,"x_max":496,"o":"m 489 793 q 311 799 424 799 q 154 788 199 799 q 153 829 153 797 q 158 883 153 861 q 330 878 214 878 q 493 890 446 878 q 496 843 496 871 q 489 793 496 815 z "},"°":{"ha":475,"x_min":56,"x_max":419,"o":"m 242 949 q 292 949 242 949 q 381 905 343 949 q 419 771 419 861 q 372 630 419 681 q 229 579 325 579 q 94 625 133 579 q 56 759 56 671 q 98 898 56 847 q 242 949 140 949 m 250 876 q 132 767 132 876 q 154 677 132 703 q 231 651 176 651 q 314 683 285 651 q 343 770 343 714 q 321 851 343 826 q 250 876 299 876 z "},"±":{"ha":835,"x_min":121,"x_max":714,"o":"m 360 797 q 426 807 390 807 q 482 803 463 807 q 469 691 475 779 q 463 556 463 603 q 598 562 510 556 q 710 575 686 568 q 714 519 714 556 q 704 453 714 483 q 463 465 599 463 q 475 224 463 315 q 408 214 444 214 q 353 218 372 214 q 372 465 368 279 q 125 446 186 461 q 121 501 121 464 q 131 568 121 538 q 372 556 222 556 q 360 797 369 692 m 704 -7 q 456 6 576 6 q 243 -1 336 6 q 125 -14 150 -7 q 121 41 121 4 q 131 108 121 78 q 363 96 226 96 q 710 115 640 96 q 714 60 714 97 q 704 -7 714 24 z "},"²":{"ha":485,"x_min":51,"x_max":428,"o":"m 349 501 l 351 560 q 389 564 369 564 l 421 564 q 428 426 424 489 l 415 414 q 253 424 353 424 l 238 424 q 57 410 131 424 q 51 454 51 438 q 185 618 93 526 q 315 815 315 749 q 296 874 315 847 q 235 901 276 901 q 168 876 194 901 q 175 841 175 863 q 160 801 175 819 q 114 783 144 783 q 65 841 65 783 q 117 934 65 899 q 240 969 169 969 q 360 931 310 969 q 410 818 410 892 q 385 735 410 779 q 337 663 361 690 q 258 578 313 635 q 185 497 203 521 l 322 500 q 349 501 335 500 z "},"³":{"ha":514,"x_min":57,"x_max":439,"o":"m 189 878 q 193 844 193 865 q 176 803 193 822 q 128 783 160 783 q 75 843 75 783 q 127 936 75 903 q 249 969 179 969 q 369 931 319 969 q 419 814 419 892 q 361 700 419 736 q 439 579 439 660 q 389 453 439 499 q 231 408 339 408 q 57 469 122 408 q 74 514 61 493 q 99 544 88 535 l 110 553 q 235 482 158 482 q 317 507 290 482 q 344 571 344 532 q 289 657 344 635 q 234 656 268 656 q 174 660 200 656 q 171 692 171 676 q 182 725 171 708 q 245 717 206 717 q 306 747 285 717 q 328 812 328 778 q 308 872 328 846 q 249 897 288 897 q 189 878 210 897 z "},"´":{"ha":589,"x_min":153,"x_max":436,"o":"m 181 733 q 153 785 160 756 q 219 829 179 803 q 278 869 260 856 q 381 947 335 908 q 422 899 410 922 q 436 838 435 876 q 181 733 353 804 z "},"µ":{"ha":674,"x_min":81,"x_max":632,"o":"m 586 644 q 565 322 565 456 q 576 93 565 188 l 629 90 q 632 50 632 68 q 628 10 632 32 q 476 -4 574 7 q 460 65 465 21 q 374 8 410 24 q 283 -7 338 -7 q 192 25 228 -7 q 226 -246 199 -137 q 149 -261 185 -261 q 81 -253 114 -261 q 108 257 108 10 q 83 636 108 504 q 153 649 114 649 q 231 644 193 649 q 210 321 210 454 q 228 133 210 188 q 312 79 247 79 q 461 164 376 79 q 464 288 464 206 q 439 636 464 517 q 526 650 492 650 q 586 644 561 650 z "},"¶":{"ha":711,"x_min":104,"x_max":672,"o":"m 568 793 q 556 456 556 693 q 568 81 556 219 l 618 76 q 621 38 621 54 q 617 -1 621 22 q 500 0 568 0 q 379 -1 432 0 q 375 35 375 19 q 378 76 375 51 l 440 81 q 451 389 449 200 q 388 382 424 382 q 175 458 246 382 q 104 646 104 535 q 407 910 104 910 q 672 857 564 910 q 663 790 672 819 q 643 751 653 760 q 568 793 610 775 m 438 829 l 408 831 q 225 651 225 831 q 258 529 225 583 q 368 475 292 475 q 451 497 414 475 q 438 829 451 689 z "},"·":{"ha":375,"x_min":125,"x_max":306,"o":"m 306 351 q 281 282 306 310 q 204 254 256 254 q 125 335 125 254 q 226 435 125 435 q 306 351 306 435 z "},"¸":{"ha":697,"x_min":210,"x_max":468,"o":"m 468 -172 q 314 -292 468 -292 q 211 -275 251 -292 q 210 -249 210 -271 q 228 -200 210 -228 q 316 -228 258 -228 q 374 -174 374 -228 q 311 -132 374 -132 q 244 -137 283 -132 l 267 -14 l 325 -1 l 328 -75 q 468 -172 468 -81 z "},"¹":{"ha":396,"x_min":42,"x_max":361,"o":"m 288 964 q 275 718 275 872 q 282 486 275 564 l 360 479 q 361 453 361 471 q 357 413 361 436 q 233 414 310 414 q 111 413 157 414 q 106 448 106 429 q 108 479 106 467 l 185 486 q 190 693 190 579 q 188 856 190 807 q 93 785 117 808 q 42 872 53 828 q 225 969 103 897 q 288 964 275 969 z "},"º":{"ha":460,"x_min":67,"x_max":392,"o":"m 69 731 q 230 935 69 935 q 390 731 390 935 q 356 575 390 632 q 229 518 321 518 q 103 575 138 518 q 69 731 69 632 m 150 733 q 150 661 150 733 q 229 590 150 590 q 308 733 308 590 q 229 875 308 875 q 150 733 150 875 m 75 364 q 67 402 67 381 q 75 453 67 424 q 383 479 350 472 q 392 441 392 463 q 383 390 392 419 q 75 364 108 371 z "},"»":{"ha":688,"x_min":97,"x_max":646,"o":"m 483 389 l 371 592 q 438 628 394 615 q 494 558 463 597 q 544 497 526 519 q 646 389 585 447 q 556 294 585 331 q 494 219 526 258 q 438 150 463 181 q 371 186 400 158 q 483 389 474 371 m 97 592 q 164 628 125 617 q 221 558 189 597 q 269 497 253 519 q 372 389 311 447 q 282 294 311 331 q 221 219 253 258 q 164 150 189 181 q 97 186 129 157 q 210 389 164 303 q 97 592 207 394 z "},"¼":{"ha":1235,"x_min":111,"x_max":1063,"o":"m 424 -64 q 344 -37 376 -64 q 697 953 517 368 q 733 956 719 956 q 807 931 772 956 q 453 -61 639 543 q 424 -64 431 -64 m 882 532 q 944 544 914 544 q 1022 540 975 544 q 1010 343 1010 446 q 1011 219 1010 240 q 1054 228 1044 225 q 1063 178 1063 203 q 1053 129 1063 154 q 1014 133 1015 133 q 1018 64 1014 93 l 1060 58 q 1061 32 1061 50 q 1057 -8 1061 14 q 965 -7 1022 -7 q 881 -8 908 -7 q 875 27 875 8 q 878 58 875 46 l 917 64 q 921 138 917 65 l 860 138 q 681 133 747 138 q 674 176 674 151 q 882 532 819 404 m 924 213 q 925 294 925 228 q 921 454 925 361 q 785 211 871 379 q 924 213 882 213 m 357 901 q 344 656 344 810 q 351 424 344 501 l 429 417 q 431 390 431 408 q 426 350 431 372 q 303 351 379 351 q 181 350 226 351 q 175 385 175 367 q 178 417 175 404 l 254 424 q 260 631 260 517 q 257 793 260 744 q 163 722 186 746 q 111 810 122 765 q 294 907 172 835 q 357 901 344 907 z "},"½":{"ha":1235,"x_min":111,"x_max":1083,"o":"m 408 -64 q 329 -37 361 -64 q 682 953 501 368 q 718 956 704 956 q 792 931 757 956 q 438 -61 624 543 q 408 -64 415 -64 m 1004 81 l 1007 139 q 1044 143 1025 143 l 1076 143 q 1083 6 1079 68 l 1071 -7 q 908 3 1008 3 l 893 3 q 713 -11 786 3 q 707 33 707 17 q 840 197 749 106 q 971 394 971 328 q 951 453 971 426 q 891 481 932 481 q 824 456 850 481 q 831 420 831 442 q 815 381 831 399 q 769 363 800 363 q 721 420 721 363 q 773 513 721 478 q 895 549 825 549 q 1015 510 965 549 q 1065 397 1065 471 q 1041 314 1065 358 q 992 242 1017 269 q 913 157 968 214 q 840 76 858 100 l 946 78 q 1004 81 976 78 m 357 901 q 344 656 344 810 q 351 424 344 501 l 429 417 q 431 390 431 408 q 426 350 431 372 q 303 351 379 351 q 181 350 226 351 q 175 385 175 367 q 178 417 175 404 l 254 424 q 260 631 260 517 q 257 793 260 744 q 163 722 186 746 q 111 810 122 765 q 294 907 172 835 q 357 901 344 907 z "},"¾":{"ha":1235,"x_min":101,"x_max":1063,"o":"m 465 -64 q 386 -37 418 -64 q 739 953 558 368 q 775 956 761 956 q 849 931 814 956 q 494 -61 681 543 q 465 -64 472 -64 m 882 532 q 944 544 914 544 q 1022 540 975 544 q 1010 343 1010 446 q 1011 219 1010 240 q 1054 228 1044 225 q 1063 178 1063 203 q 1053 129 1063 154 q 1014 133 1015 133 q 1018 64 1014 93 l 1060 58 q 1061 32 1061 50 q 1057 -8 1061 14 q 965 -7 1022 -7 q 881 -8 908 -7 q 875 27 875 8 q 878 58 875 46 l 917 64 q 921 138 917 65 l 860 138 q 681 133 747 138 q 674 176 674 151 q 882 532 819 404 m 924 213 q 925 294 925 228 q 921 454 925 361 q 785 211 871 379 q 924 213 882 213 m 233 815 q 238 781 238 803 q 221 740 238 760 q 172 721 204 721 q 119 781 119 721 q 172 874 119 840 q 294 907 224 907 q 414 868 364 907 q 464 751 464 829 q 406 638 464 674 q 483 517 483 597 q 433 391 483 436 q 275 346 383 346 q 101 407 167 346 q 119 451 106 431 q 143 481 132 472 l 154 490 q 279 419 203 419 q 362 444 335 419 q 389 508 389 469 q 333 594 389 572 q 278 593 313 593 q 218 597 244 593 q 215 630 215 614 q 226 663 215 646 q 290 654 250 654 q 351 685 329 654 q 372 749 372 715 q 352 809 372 783 q 293 835 332 835 q 233 815 254 835 z "},"¿":{"ha":596,"x_min":75,"x_max":526,"o":"m 226 -181 q 243 -197 226 -181 q 311 -214 261 -214 q 392 -187 361 -214 q 379 -133 379 -167 q 400 -74 379 -100 q 461 -49 421 -49 q 526 -127 526 -49 q 460 -249 526 -206 q 306 -292 393 -292 q 147 -239 219 -292 q 75 -94 75 -186 q 156 64 75 -7 q 222 119 189 93 q 304 247 304 185 q 261 356 304 308 q 346 407 296 401 q 399 241 399 310 q 324 93 399 172 q 280 48 313 81 q 233 -1 247 15 q 190 -100 190 -53 q 226 -181 190 -147 m 224 567 q 249 636 224 608 q 325 664 274 664 q 404 583 404 664 q 303 483 404 483 q 224 567 224 483 z "},"À":{"ha":779,"x_min":-1,"x_max":781,"o":"m 214 808 q 210 851 210 825 q 211 886 210 878 q 393 901 333 901 q 494 888 453 901 q 726 81 528 626 l 778 76 q 781 34 781 46 q 776 -1 781 22 q 656 0 738 0 q 542 -1 574 0 q 538 38 538 19 q 540 76 538 57 l 589 81 q 567 177 582 114 q 550 247 551 240 q 378 251 471 251 q 206 246 286 251 l 167 81 l 219 76 q 222 34 222 46 q 218 -1 222 22 q 109 0 185 0 q 3 -1 33 0 q -1 38 -1 19 q 1 76 -1 57 l 50 81 q 269 804 217 538 l 214 808 m 231 343 q 372 342 278 342 q 525 346 467 342 q 388 803 460 593 l 379 803 q 231 343 297 604 m 469 978 q 219 1054 382 996 q 228 1122 219 1100 q 265 1174 238 1143 q 356 1108 318 1129 q 403 1081 394 1086 q 447 1056 413 1075 q 492 1031 482 1036 q 469 978 488 1001 z "},"Á":{"ha":779,"x_min":-1,"x_max":781,"o":"m 214 808 q 210 851 210 825 q 211 886 210 878 q 393 901 333 901 q 494 888 453 901 q 726 81 528 626 l 778 76 q 781 34 781 46 q 776 -1 781 22 q 656 0 738 0 q 542 -1 574 0 q 538 38 538 19 q 540 76 538 57 l 589 81 q 567 177 582 114 q 550 247 551 240 q 378 251 471 251 q 206 246 286 251 l 167 81 l 219 76 q 222 34 222 46 q 218 -1 222 22 q 109 0 185 0 q 3 -1 33 0 q -1 38 -1 19 q 1 76 -1 57 l 50 81 q 269 804 217 538 l 214 808 m 231 343 q 372 342 278 342 q 525 346 467 342 q 388 803 460 593 l 379 803 q 231 343 297 604 m 551 1067 q 550 1042 551 1050 q 297 978 379 990 q 276 1032 279 1001 q 347 1068 306 1047 q 408 1100 388 1089 q 510 1164 469 1133 q 551 1067 551 1118 z "},"Â":{"ha":779,"x_min":-1,"x_max":781,"o":"m 214 808 q 210 851 210 825 q 211 886 210 878 q 393 901 333 901 q 494 888 453 901 q 726 81 528 626 l 778 76 q 781 34 781 46 q 776 -1 781 22 q 656 0 738 0 q 542 -1 574 0 q 538 38 538 19 q 540 76 538 57 l 589 81 q 567 177 582 114 q 550 247 551 240 q 378 251 471 251 q 206 246 286 251 l 167 81 l 219 76 q 222 34 222 46 q 218 -1 222 22 q 109 0 185 0 q 3 -1 33 0 q -1 38 -1 19 q 1 76 -1 57 l 50 81 q 269 804 217 538 l 214 808 m 231 343 q 372 342 278 342 q 525 346 467 342 q 388 803 460 593 l 379 803 q 231 343 297 604 m 568 978 q 392 1050 474 1007 q 204 978 271 994 q 183 1032 188 1003 q 238 1064 213 1051 q 283 1089 263 1076 q 313 1108 303 1101 q 339 1126 322 1115 q 392 1174 358 1140 q 590 1031 453 1115 q 568 978 586 1001 z "},"Ã":{"ha":779,"x_min":-1,"x_max":781,"o":"m 214 808 q 210 851 210 825 q 211 886 210 878 q 393 901 333 901 q 494 888 453 901 q 726 81 528 626 l 778 76 q 781 34 781 46 q 776 -1 781 22 q 656 0 738 0 q 542 -1 574 0 q 538 38 538 19 q 540 76 538 57 l 589 81 q 567 177 582 114 q 550 247 551 240 q 378 251 471 251 q 206 246 286 251 l 167 81 l 219 76 q 222 34 222 46 q 218 -1 222 22 q 109 0 185 0 q 3 -1 33 0 q -1 38 -1 19 q 1 76 -1 57 l 50 81 q 269 804 217 538 l 214 808 m 231 343 q 372 342 278 342 q 525 346 467 342 q 388 803 460 593 l 379 803 q 231 343 297 604 m 589 1069 q 526 1006 568 1033 q 450 978 485 978 q 372 1001 415 978 q 303 1024 328 1024 q 228 979 253 1024 q 183 1024 190 994 q 246 1088 204 1060 q 324 1115 288 1115 q 405 1092 361 1115 q 469 1069 449 1069 q 544 1114 519 1069 q 589 1069 582 1099 z "},"Ä":{"ha":779,"x_min":-1,"x_max":781,"o":"m 214 808 q 210 851 210 825 q 211 886 210 878 q 393 901 333 901 q 494 888 453 901 q 726 81 528 626 l 778 76 q 781 34 781 46 q 776 -1 781 22 q 656 0 738 0 q 542 -1 574 0 q 538 38 538 19 q 540 76 538 57 l 589 81 q 567 177 582 114 q 550 247 551 240 q 378 251 471 251 q 206 246 286 251 l 167 81 l 219 76 q 222 34 222 46 q 218 -1 222 22 q 109 0 185 0 q 3 -1 33 0 q -1 38 -1 19 q 1 76 -1 57 l 50 81 q 269 804 217 538 l 214 808 m 231 343 q 372 342 278 342 q 525 346 467 342 q 388 803 460 593 l 379 803 q 231 343 297 604 m 357 1054 q 276 978 357 978 q 214 1042 214 978 q 294 1119 214 1119 q 357 1054 357 1119 m 565 1054 q 485 978 565 978 q 422 1042 422 978 q 503 1119 422 1119 q 565 1054 565 1119 z "},"Å":{"ha":779,"x_min":-1,"x_max":781,"o":"m 214 808 q 210 851 210 825 q 211 886 210 878 q 393 901 333 901 q 494 888 453 901 q 726 81 528 626 l 778 76 q 781 34 781 46 q 776 -1 781 22 q 656 0 738 0 q 542 -1 574 0 q 538 38 538 19 q 540 76 538 57 l 589 81 q 567 177 582 114 q 550 247 551 240 q 378 251 471 251 q 206 246 286 251 l 167 81 l 219 76 q 222 34 222 46 q 218 -1 222 22 q 109 0 185 0 q 3 -1 33 0 q -1 38 -1 19 q 1 76 -1 57 l 50 81 q 269 804 217 538 l 214 808 m 231 343 q 372 342 278 342 q 525 346 467 342 q 388 803 460 593 l 379 803 q 231 343 297 604 m 510 1088 q 379 978 510 978 q 294 1004 319 978 q 268 1085 268 1031 q 399 1194 268 1194 q 485 1169 460 1194 q 510 1088 510 1144 m 396 1143 q 322 1088 322 1143 q 336 1042 322 1056 q 382 1029 350 1029 q 456 1089 456 1029 q 442 1131 456 1118 q 396 1143 428 1143 z "},"Æ":{"ha":1078,"x_min":-1,"x_max":1001,"o":"m 660 106 q 786 100 732 100 q 907 108 840 100 l 911 203 q 953 207 933 207 q 989 206 972 207 q 1001 0 993 100 l 994 -7 q 606 0 932 0 q 538 -6 582 0 q 526 249 538 107 q 359 251 413 251 q 231 246 306 251 l 174 81 l 226 76 q 229 38 229 54 q 225 -1 229 22 q 110 0 175 0 q 3 -1 46 0 q -1 35 -1 19 q 1 76 -1 51 l 51 81 q 339 807 261 539 l 290 811 q 288 852 288 836 q 292 889 288 868 q 363 888 321 888 l 619 888 q 960 900 903 888 l 967 893 q 954 696 957 786 q 919 694 938 694 q 876 699 900 694 l 872 793 q 708 797 789 797 q 586 793 626 797 q 607 507 588 706 q 700 506 635 506 q 849 513 765 506 l 853 564 q 892 567 875 567 q 931 563 908 567 q 929 462 929 514 q 931 363 929 410 q 894 358 910 358 q 853 361 878 358 l 849 410 q 733 413 796 413 q 618 410 671 413 q 660 106 639 207 m 519 344 l 511 431 q 457 803 482 671 l 447 803 q 267 343 333 528 q 405 342 325 342 q 519 344 485 342 z "},"Ç":{"ha":744,"x_min":76,"x_max":688,"o":"m 615 625 q 549 651 572 625 q 525 720 525 678 q 543 786 525 763 q 421 828 499 828 q 249 733 307 828 q 190 453 190 638 q 421 82 190 82 q 534 109 476 82 q 632 181 592 136 q 688 71 675 146 q 421 -21 564 -21 l 407 -21 l 410 -75 q 550 -172 550 -81 q 396 -292 550 -292 q 293 -275 333 -292 q 292 -249 292 -271 q 310 -200 292 -228 q 398 -228 340 -228 q 456 -174 456 -228 q 393 -132 456 -132 q 326 -137 365 -132 l 347 -15 q 141 117 206 4 q 76 455 76 231 q 164 794 76 679 q 421 910 251 910 q 606 855 525 910 q 688 713 688 800 q 615 625 688 625 z "},"È":{"ha":721,"x_min":90,"x_max":644,"o":"m 513 564 q 554 567 543 567 q 590 563 565 567 q 589 451 589 519 q 590 363 589 383 q 550 358 569 358 q 513 361 531 358 l 508 410 q 385 413 433 413 q 261 410 336 413 q 271 106 261 228 q 409 101 319 101 q 550 108 499 101 l 554 203 q 598 207 578 207 q 632 206 618 207 q 644 0 633 97 l 638 -7 q 340 0 569 0 q 97 -1 110 0 q 93 38 93 19 q 96 76 93 57 l 144 81 q 157 470 157 296 q 140 807 157 644 l 93 811 q 90 849 90 829 q 94 889 90 868 q 349 888 129 888 q 631 900 568 888 l 638 893 q 625 696 626 771 q 590 694 611 694 q 547 699 569 694 l 543 793 q 396 797 472 797 q 269 793 319 797 q 261 507 261 706 q 351 506 283 506 q 508 511 419 506 l 513 564 m 496 978 q 246 1054 408 996 q 255 1122 246 1100 q 292 1174 264 1143 q 383 1108 344 1129 q 430 1081 421 1086 q 474 1056 439 1075 q 518 1031 508 1036 q 496 978 514 1001 z "},"É":{"ha":721,"x_min":90,"x_max":644,"o":"m 513 564 q 554 567 543 567 q 590 563 565 567 q 589 451 589 519 q 590 363 589 383 q 550 358 569 358 q 513 361 531 358 l 508 410 q 385 413 433 413 q 261 410 336 413 q 271 106 261 228 q 409 101 319 101 q 550 108 499 101 l 554 203 q 598 207 578 207 q 632 206 618 207 q 644 0 633 97 l 638 -7 q 340 0 569 0 q 97 -1 110 0 q 93 38 93 19 q 96 76 93 57 l 144 81 q 157 470 157 296 q 140 807 157 644 l 93 811 q 90 849 90 829 q 94 889 90 868 q 349 888 129 888 q 631 900 568 888 l 638 893 q 625 696 626 771 q 590 694 611 694 q 547 699 569 694 l 543 793 q 396 797 472 797 q 269 793 319 797 q 261 507 261 706 q 351 506 283 506 q 508 511 419 506 l 513 564 m 564 1067 q 563 1042 564 1050 q 310 978 392 990 q 289 1032 292 1001 q 359 1068 318 1047 q 421 1100 400 1089 q 522 1164 482 1133 q 564 1067 564 1118 z "},"Ê":{"ha":721,"x_min":90,"x_max":644,"o":"m 513 564 q 554 567 543 567 q 590 563 565 567 q 589 451 589 519 q 590 363 589 383 q 550 358 569 358 q 513 361 531 358 l 508 410 q 385 413 433 413 q 261 410 336 413 q 271 106 261 228 q 409 101 319 101 q 550 108 499 101 l 554 203 q 598 207 578 207 q 632 206 618 207 q 644 0 633 97 l 638 -7 q 340 0 569 0 q 97 -1 110 0 q 93 38 93 19 q 96 76 93 57 l 144 81 q 157 470 157 296 q 140 807 157 644 l 93 811 q 90 849 90 829 q 94 889 90 868 q 349 888 129 888 q 631 900 568 888 l 638 893 q 625 696 626 771 q 590 694 611 694 q 547 699 569 694 l 543 793 q 396 797 472 797 q 269 793 319 797 q 261 507 261 706 q 351 506 283 506 q 508 511 419 506 l 513 564 m 572 978 q 396 1050 478 1007 q 208 978 275 994 q 188 1032 192 1003 q 242 1064 217 1051 q 287 1089 267 1076 q 317 1108 307 1101 q 342 1126 326 1115 q 396 1174 363 1140 q 594 1031 457 1115 q 572 978 590 1001 z "},"Ë":{"ha":721,"x_min":90,"x_max":644,"o":"m 513 564 q 554 567 543 567 q 590 563 565 567 q 589 451 589 519 q 590 363 589 383 q 550 358 569 358 q 513 361 531 358 l 508 410 q 385 413 433 413 q 261 410 336 413 q 271 106 261 228 q 409 101 319 101 q 550 108 499 101 l 554 203 q 598 207 578 207 q 632 206 618 207 q 644 0 633 97 l 638 -7 q 340 0 569 0 q 97 -1 110 0 q 93 38 93 19 q 96 76 93 57 l 144 81 q 157 470 157 296 q 140 807 157 644 l 93 811 q 90 849 90 829 q 94 889 90 868 q 349 888 129 888 q 631 900 568 888 l 638 893 q 625 696 626 771 q 590 694 611 694 q 547 699 569 694 l 543 793 q 396 797 472 797 q 269 793 319 797 q 261 507 261 706 q 351 506 283 506 q 508 511 419 506 l 513 564 m 356 1054 q 275 978 356 978 q 213 1042 213 978 q 293 1119 213 1119 q 356 1054 356 1119 m 564 1054 q 483 978 564 978 q 421 1042 421 978 q 501 1119 421 1119 q 564 1054 564 1119 z "},"Ì":{"ha":440,"x_min":83,"x_max":356,"o":"m 281 811 q 271 463 271 699 q 283 81 271 226 l 333 76 q 336 38 336 54 q 332 -1 336 22 q 219 0 283 0 q 108 -1 156 0 q 104 35 104 19 q 107 76 104 51 l 156 81 q 167 463 167 231 q 154 811 167 696 l 107 815 q 104 853 104 838 q 108 893 104 869 q 221 892 157 892 q 332 893 285 892 q 336 856 336 872 q 333 815 336 840 l 281 811 m 333 978 q 83 1054 246 996 q 92 1122 83 1100 q 129 1174 101 1143 q 220 1108 182 1129 q 267 1081 258 1086 q 311 1056 276 1075 q 356 1031 346 1036 q 333 978 351 1001 z "},"Í":{"ha":440,"x_min":104,"x_max":394,"o":"m 281 811 q 271 463 271 699 q 283 81 271 226 l 333 76 q 336 38 336 54 q 332 -1 336 22 q 219 0 283 0 q 108 -1 156 0 q 104 35 104 19 q 107 76 104 51 l 156 81 q 167 463 167 231 q 154 811 167 696 l 107 815 q 104 853 104 838 q 108 893 104 869 q 221 892 157 892 q 332 893 285 892 q 336 856 336 872 q 333 815 336 840 l 281 811 m 394 1067 q 393 1042 394 1050 q 140 978 222 990 q 119 1032 122 1001 q 190 1068 149 1047 q 251 1100 231 1089 q 353 1164 313 1133 q 394 1067 394 1118 z "},"Î":{"ha":440,"x_min":15,"x_max":422,"o":"m 281 811 q 271 463 271 699 q 283 81 271 226 l 333 76 q 336 38 336 54 q 332 -1 336 22 q 219 0 283 0 q 108 -1 156 0 q 104 35 104 19 q 107 76 104 51 l 156 81 q 167 463 167 231 q 154 811 167 696 l 107 815 q 104 853 104 838 q 108 893 104 869 q 221 892 157 892 q 332 893 285 892 q 336 856 336 872 q 333 815 336 840 l 281 811 m 400 978 q 224 1050 306 1007 q 36 978 103 994 q 15 1032 19 1003 q 69 1064 44 1051 q 115 1089 94 1076 q 144 1108 135 1101 q 169 1126 154 1115 q 224 1174 190 1140 q 422 1031 285 1115 q 400 978 418 1001 z "},"Ï":{"ha":440,"x_min":43,"x_max":394,"o":"m 281 811 q 271 463 271 699 q 283 81 271 226 l 333 76 q 336 38 336 54 q 332 -1 336 22 q 219 0 283 0 q 108 -1 156 0 q 104 35 104 19 q 107 76 104 51 l 156 81 q 167 463 167 231 q 154 811 167 696 l 107 815 q 104 853 104 838 q 108 893 104 869 q 221 892 157 892 q 332 893 285 892 q 336 856 336 872 q 333 815 336 840 l 281 811 m 186 1054 q 106 978 186 978 q 43 1042 43 978 q 124 1119 43 1119 q 186 1054 186 1119 m 394 1054 q 314 978 394 978 q 251 1042 251 978 q 332 1119 251 1119 q 394 1054 394 1119 z "},"Ð":{"ha":856,"x_min":63,"x_max":779,"o":"m 414 -21 q 273 -13 336 -21 q 90 3 210 -6 q 89 35 89 10 q 93 81 89 61 l 149 85 q 161 404 160 218 q 67 393 133 401 q 63 448 63 414 q 72 515 63 482 q 161 507 115 510 q 147 804 157 718 l 93 808 q 89 852 89 825 q 90 886 89 879 q 258 899 181 888 q 414 910 336 910 q 685 791 590 910 q 779 451 779 672 q 414 -21 779 -21 m 414 78 q 597 174 533 78 q 660 451 660 269 q 596 730 660 632 q 413 828 532 828 q 275 801 346 828 q 265 504 265 689 q 474 522 371 504 q 478 467 478 501 q 468 400 478 433 q 289 410 389 410 l 265 410 q 276 107 265 218 q 414 78 342 78 z "},"Ñ":{"ha":903,"x_min":83,"x_max":819,"o":"m 671 201 q 675 507 675 318 q 663 811 675 696 l 611 815 q 608 853 608 838 q 613 893 608 869 q 715 892 657 892 q 815 893 772 892 q 819 856 819 872 q 817 815 819 840 l 768 811 q 758 388 758 699 q 782 3 758 78 q 722 -11 740 -11 q 656 -8 703 -11 q 574 148 646 35 q 394 418 501 261 q 239 653 286 575 q 238 410 238 593 q 250 81 238 226 l 301 76 q 304 38 304 54 q 300 -1 304 22 q 197 0 256 0 q 96 -1 139 0 q 92 35 92 19 q 94 76 92 51 l 143 81 q 154 460 154 231 q 142 804 154 690 l 88 808 q 83 851 83 828 q 85 886 83 875 q 260 893 203 889 q 410 593 286 793 q 671 201 533 393 m 651 1069 q 589 1006 631 1033 q 513 978 547 978 q 434 1001 478 978 q 365 1024 390 1024 q 290 979 315 1024 q 246 1024 253 994 q 308 1088 267 1060 q 387 1115 350 1115 q 467 1092 424 1115 q 532 1069 511 1069 q 607 1114 582 1069 q 651 1069 644 1099 z "},"Ò":{"ha":835,"x_min":76,"x_max":758,"o":"m 76 454 q 417 910 76 910 q 758 454 758 910 q 752 308 758 371 q 724 181 746 246 q 667 74 703 115 q 567 6 631 32 q 417 -21 504 -21 q 267 6 331 -21 q 168 74 204 32 q 110 181 132 115 q 83 308 89 246 q 76 454 76 371 m 300 113 q 417 82 347 82 q 535 113 488 82 q 607 200 583 143 q 649 453 649 299 q 417 828 649 828 q 186 453 186 828 q 300 113 186 185 m 531 978 q 281 1054 443 996 q 290 1122 281 1100 q 326 1174 299 1143 q 417 1108 379 1129 q 465 1081 456 1086 q 508 1056 474 1075 q 553 1031 543 1036 q 531 978 549 1001 z "},"Ó":{"ha":835,"x_min":76,"x_max":758,"o":"m 76 454 q 417 910 76 910 q 758 454 758 910 q 752 308 758 371 q 724 181 746 246 q 667 74 703 115 q 567 6 631 32 q 417 -21 504 -21 q 267 6 331 -21 q 168 74 204 32 q 110 181 132 115 q 83 308 89 246 q 76 454 76 371 m 300 113 q 417 82 347 82 q 535 113 488 82 q 607 200 583 143 q 649 453 649 299 q 417 828 649 828 q 186 453 186 828 q 300 113 186 185 m 593 1067 q 592 1042 593 1050 q 339 978 421 990 q 318 1032 321 1001 q 388 1068 347 1047 q 450 1100 429 1089 q 551 1164 511 1133 q 593 1067 593 1118 z "},"Ô":{"ha":835,"x_min":76,"x_max":758,"o":"m 76 454 q 417 910 76 910 q 758 454 758 910 q 752 308 758 371 q 724 181 746 246 q 667 74 703 115 q 567 6 631 32 q 417 -21 504 -21 q 267 6 331 -21 q 168 74 204 32 q 110 181 132 115 q 83 308 89 246 q 76 454 76 371 m 300 113 q 417 82 347 82 q 535 113 488 82 q 607 200 583 143 q 649 453 649 299 q 417 828 649 828 q 186 453 186 828 q 300 113 186 185 m 593 978 q 417 1050 499 1007 q 229 978 296 994 q 208 1032 213 1003 q 263 1064 238 1051 q 308 1089 288 1076 q 338 1108 328 1101 q 364 1126 347 1115 q 417 1174 383 1140 q 615 1031 478 1115 q 593 978 611 1001 z "},"Õ":{"ha":835,"x_min":76,"x_max":758,"o":"m 76 454 q 417 910 76 910 q 758 454 758 910 q 752 308 758 371 q 724 181 746 246 q 667 74 703 115 q 567 6 631 32 q 417 -21 504 -21 q 267 6 331 -21 q 168 74 204 32 q 110 181 132 115 q 83 308 89 246 q 76 454 76 371 m 300 113 q 417 82 347 82 q 535 113 488 82 q 607 200 583 143 q 649 453 649 299 q 417 828 649 828 q 186 453 186 828 q 300 113 186 185 m 619 1069 q 557 1006 599 1033 q 481 978 515 978 q 402 1001 446 978 q 333 1024 358 1024 q 258 979 283 1024 q 214 1024 221 994 q 276 1088 235 1060 q 355 1115 318 1115 q 435 1092 392 1115 q 500 1069 479 1069 q 575 1114 550 1069 q 619 1069 613 1099 z "},"Ö":{"ha":835,"x_min":76,"x_max":758,"o":"m 76 454 q 417 910 76 910 q 758 454 758 910 q 752 308 758 371 q 724 181 746 246 q 667 74 703 115 q 567 6 631 32 q 417 -21 504 -21 q 267 6 331 -21 q 168 74 204 32 q 110 181 132 115 q 83 308 89 246 q 76 454 76 371 m 300 113 q 417 82 347 82 q 535 113 488 82 q 607 200 583 143 q 649 453 649 299 q 417 828 649 828 q 186 453 186 828 q 300 113 186 185 m 388 1054 q 307 978 388 978 q 244 1042 244 978 q 325 1119 244 1119 q 388 1054 388 1119 m 596 1054 q 515 978 596 978 q 453 1042 453 978 q 533 1119 453 1119 q 596 1054 596 1119 z "},"×":{"ha":835,"x_min":144,"x_max":690,"o":"m 144 646 q 226 736 172 699 q 308 637 239 715 q 417 518 378 558 q 523 634 451 553 q 608 736 594 715 q 690 646 663 699 q 481 454 604 575 q 690 264 621 317 q 652 211 672 231 q 608 174 632 192 q 523 275 594 194 q 417 390 451 356 q 308 272 376 349 q 226 174 239 194 q 144 264 172 213 q 353 454 208 313 q 144 646 246 561 z "},"Ø":{"ha":835,"x_min":76,"x_max":758,"o":"m 271 -117 q 196 -87 226 -117 l 233 21 q 108 183 140 74 q 76 454 76 292 q 417 910 76 910 q 506 900 468 910 l 533 1003 q 568 1006 556 1006 q 639 978 603 1006 l 597 865 q 758 454 758 767 q 752 308 758 371 q 724 181 746 246 q 667 74 703 115 q 567 6 631 32 q 435 -21 504 -21 q 325 -12 367 -21 l 299 -112 q 271 -117 283 -117 m 186 453 q 274 133 186 218 q 483 818 382 454 q 417 828 447 828 q 186 453 186 828 m 417 82 q 607 200 558 82 q 649 453 649 299 q 563 768 649 676 q 354 89 453 447 q 417 82 385 82 z "},"Ù":{"ha":894,"x_min":76,"x_max":818,"o":"m 671 383 q 657 811 671 683 l 608 815 q 606 853 606 838 q 610 893 606 869 q 713 892 654 892 q 814 893 771 892 q 818 856 818 872 q 815 815 818 840 l 769 811 q 758 488 758 675 q 753 245 758 301 q 728 135 747 189 q 676 49 710 81 q 451 -21 604 -21 q 194 89 256 -21 q 153 214 164 147 q 143 482 143 281 q 129 811 143 683 l 79 815 q 76 853 76 838 q 81 893 76 869 q 193 892 129 892 q 304 893 257 892 q 308 856 308 872 q 306 815 308 840 l 258 811 q 247 383 247 675 q 290 155 247 228 q 461 82 333 82 q 630 155 589 82 q 671 383 671 228 m 521 978 q 271 1054 433 996 q 280 1122 271 1100 q 317 1174 289 1143 q 408 1108 369 1129 q 455 1081 446 1086 q 499 1056 464 1075 q 543 1031 533 1036 q 521 978 539 1001 z "},"Ú":{"ha":894,"x_min":76,"x_max":818,"o":"m 671 383 q 657 811 671 683 l 608 815 q 606 853 606 838 q 610 893 606 869 q 713 892 654 892 q 814 893 771 892 q 818 856 818 872 q 815 815 818 840 l 769 811 q 758 488 758 675 q 753 245 758 301 q 728 135 747 189 q 676 49 710 81 q 451 -21 604 -21 q 194 89 256 -21 q 153 214 164 147 q 143 482 143 281 q 129 811 143 683 l 79 815 q 76 853 76 838 q 81 893 76 869 q 193 892 129 892 q 304 893 257 892 q 308 856 308 872 q 306 815 308 840 l 258 811 q 247 383 247 675 q 290 155 247 228 q 461 82 333 82 q 630 155 589 82 q 671 383 671 228 m 615 1067 q 614 1042 615 1050 q 361 978 443 990 q 340 1032 343 1001 q 410 1068 369 1047 q 472 1100 451 1089 q 574 1164 533 1133 q 615 1067 615 1118 z "},"Û":{"ha":894,"x_min":76,"x_max":818,"o":"m 671 383 q 657 811 671 683 l 608 815 q 606 853 606 838 q 610 893 606 869 q 713 892 654 892 q 814 893 771 892 q 818 856 818 872 q 815 815 818 840 l 769 811 q 758 488 758 675 q 753 245 758 301 q 728 135 747 189 q 676 49 710 81 q 451 -21 604 -21 q 194 89 256 -21 q 153 214 164 147 q 143 482 143 281 q 129 811 143 683 l 79 815 q 76 853 76 838 q 81 893 76 869 q 193 892 129 892 q 304 893 257 892 q 308 856 308 872 q 306 815 308 840 l 258 811 q 247 383 247 675 q 290 155 247 228 q 461 82 333 82 q 630 155 589 82 q 671 383 671 228 m 632 978 q 456 1050 538 1007 q 268 978 335 994 q 247 1032 251 1003 q 301 1064 276 1051 q 347 1089 326 1076 q 376 1108 367 1101 q 403 1126 386 1115 q 456 1174 422 1140 q 654 1031 517 1115 q 632 978 650 1001 z "},"Ü":{"ha":894,"x_min":76,"x_max":818,"o":"m 671 383 q 657 811 671 683 l 608 815 q 606 853 606 838 q 610 893 606 869 q 713 892 654 892 q 814 893 771 892 q 818 856 818 872 q 815 815 818 840 l 769 811 q 758 488 758 675 q 753 245 758 301 q 728 135 747 189 q 676 49 710 81 q 451 -21 604 -21 q 194 89 256 -21 q 153 214 164 147 q 143 482 143 281 q 129 811 143 683 l 79 815 q 76 853 76 838 q 81 893 76 869 q 193 892 129 892 q 304 893 257 892 q 308 856 308 872 q 306 815 308 840 l 258 811 q 247 383 247 675 q 290 155 247 228 q 461 82 333 82 q 630 155 589 82 q 671 383 671 228 m 431 1054 q 350 978 431 978 q 288 1042 288 978 q 368 1119 288 1119 q 431 1054 431 1119 m 639 1054 q 558 978 639 978 q 496 1042 496 978 q 576 1119 496 1119 q 639 1054 639 1119 z "},"Ý":{"ha":688,"x_min":1,"x_max":686,"o":"m 456 815 q 453 853 453 838 q 457 893 453 869 q 567 892 501 892 q 682 893 633 892 q 686 849 686 869 q 683 815 686 829 l 635 811 q 410 269 444 401 q 421 81 414 164 l 471 76 q 474 38 474 54 q 469 -1 474 22 q 357 0 421 0 q 246 -1 293 0 q 242 35 242 19 q 244 76 242 51 l 293 81 q 303 272 301 201 q 108 708 267 392 q 56 811 64 794 l 4 815 q 1 853 1 838 q 6 893 1 869 q 126 892 54 892 q 244 893 197 892 q 249 856 249 872 q 246 815 249 840 l 196 811 q 283 579 222 713 q 361 407 344 446 l 367 407 q 446 595 404 479 q 507 811 488 711 l 456 815 m 549 1067 q 547 1042 549 1050 q 294 978 376 990 q 274 1032 276 1001 q 344 1068 303 1047 q 406 1100 385 1089 q 507 1164 467 1133 q 549 1067 549 1118 z "},"Þ":{"ha":725,"x_min":86,"x_max":697,"o":"m 333 321 q 442 281 374 281 q 543 337 510 281 q 576 464 576 393 q 393 650 576 650 q 253 617 332 650 l 253 469 q 265 81 253 226 l 315 76 q 318 38 318 54 q 314 -1 318 22 q 201 0 265 0 q 90 -1 138 0 q 86 35 86 19 q 89 76 86 51 l 138 81 q 149 463 149 231 q 136 811 149 696 l 89 815 q 86 853 86 838 q 90 893 86 869 q 203 892 139 892 q 314 893 267 892 q 318 856 318 872 q 315 815 318 840 l 263 811 q 257 721 260 779 q 394 729 317 729 q 628 660 558 729 q 697 467 697 592 q 627 265 697 343 q 414 188 557 188 q 304 208 358 188 q 314 278 304 246 q 333 321 324 310 z "},"ß":{"ha":746,"x_min":36,"x_max":711,"o":"m 124 567 l 44 565 q 36 606 36 582 q 39 642 36 631 l 124 642 q 150 788 128 725 q 228 894 172 851 q 379 938 283 938 q 544 880 475 938 q 614 726 614 822 q 570 575 614 631 q 461 499 526 519 q 711 240 711 446 q 581 -4 711 49 q 475 -21 540 -21 q 353 21 410 -21 q 296 140 296 63 l 296 146 q 361 221 296 221 q 423 195 403 221 q 443 138 443 169 q 433 85 443 107 q 488 67 450 67 q 590 240 590 67 q 492 415 590 371 q 408 439 451 433 q 360 446 364 444 q 351 487 351 463 q 354 522 351 511 q 499 704 499 551 q 466 812 499 769 q 379 854 433 854 q 295 835 325 854 q 253 781 265 817 q 229 628 229 719 l 229 386 q 256 0 229 135 l 175 0 q 68 -1 115 0 q 64 35 64 19 q 67 76 64 51 l 114 81 q 128 371 128 267 l 124 567 z "},"à":{"ha":657,"x_min":69,"x_max":599,"o":"m 539 479 l 533 279 q 544 94 533 185 l 596 90 q 599 49 599 68 q 594 10 599 31 q 438 -4 554 8 q 422 61 428 22 q 235 -21 314 -21 q 113 30 157 -21 q 69 174 69 81 q 128 322 69 268 q 277 376 188 376 q 431 343 367 376 q 432 393 432 358 q 403 541 432 496 q 317 586 375 586 q 232 564 258 586 q 243 508 243 542 q 222 451 243 475 q 161 426 200 426 q 96 503 96 426 q 154 622 96 581 q 318 664 213 664 q 481 615 424 664 q 539 479 539 565 m 425 256 q 303 304 368 304 q 178 193 178 304 q 276 79 178 79 q 353 98 313 79 q 418 144 394 117 q 425 256 425 228 m 385 733 q 129 838 213 804 q 143 899 131 876 q 185 947 156 922 q 317 848 249 893 q 413 785 386 803 q 385 733 406 756 z "},"á":{"ha":657,"x_min":69,"x_max":599,"o":"m 539 479 l 533 279 q 544 94 533 185 l 596 90 q 599 49 599 68 q 594 10 599 31 q 438 -4 554 8 q 422 61 428 22 q 235 -21 314 -21 q 113 30 157 -21 q 69 174 69 81 q 128 322 69 268 q 277 376 188 376 q 431 343 367 376 q 432 393 432 358 q 403 541 432 496 q 317 586 375 586 q 232 564 258 586 q 243 508 243 542 q 222 451 243 475 q 161 426 200 426 q 96 503 96 426 q 154 622 96 581 q 318 664 213 664 q 481 615 424 664 q 539 479 539 565 m 425 256 q 303 304 368 304 q 178 193 178 304 q 276 79 178 79 q 353 98 313 79 q 418 144 394 117 q 425 256 425 228 m 239 733 q 211 785 218 756 q 278 829 238 803 q 336 869 318 856 q 439 947 393 908 q 481 899 468 922 q 494 838 493 876 q 239 733 411 804 z "},"â":{"ha":657,"x_min":69,"x_max":599,"o":"m 539 479 l 533 279 q 544 94 533 185 l 596 90 q 599 49 599 68 q 594 10 599 31 q 438 -4 554 8 q 422 61 428 22 q 235 -21 314 -21 q 113 30 157 -21 q 69 174 69 81 q 128 322 69 268 q 277 376 188 376 q 431 343 367 376 q 432 393 432 358 q 403 541 432 496 q 317 586 375 586 q 232 564 258 586 q 243 508 243 542 q 222 451 243 475 q 161 426 200 426 q 96 503 96 426 q 154 622 96 581 q 318 664 213 664 q 481 615 424 664 q 539 479 539 565 m 425 256 q 303 304 368 304 q 178 193 178 304 q 276 79 178 79 q 353 98 313 79 q 418 144 394 117 q 425 256 425 228 m 471 733 l 313 821 q 154 733 267 796 q 126 785 132 758 q 192 839 151 806 q 313 947 276 910 q 411 858 349 910 q 499 785 474 806 q 471 733 492 756 z "},"ã":{"ha":657,"x_min":69,"x_max":599,"o":"m 539 479 l 533 279 q 544 94 533 185 l 596 90 q 599 49 599 68 q 594 10 599 31 q 438 -4 554 8 q 422 61 428 22 q 235 -21 314 -21 q 113 30 157 -21 q 69 174 69 81 q 128 322 69 268 q 277 376 188 376 q 431 343 367 376 q 432 393 432 358 q 403 541 432 496 q 317 586 375 586 q 232 564 258 586 q 243 508 243 542 q 222 451 243 475 q 161 426 200 426 q 96 503 96 426 q 154 622 96 581 q 318 664 213 664 q 481 615 424 664 q 539 479 539 565 m 425 256 q 303 304 368 304 q 178 193 178 304 q 276 79 178 79 q 353 98 313 79 q 418 144 394 117 q 425 256 425 228 m 114 792 q 174 862 133 831 q 250 893 214 893 q 330 870 286 893 q 397 847 374 847 q 467 903 432 847 q 514 857 504 886 q 454 788 494 819 q 377 756 414 756 q 297 778 340 756 q 223 801 253 801 q 158 746 193 801 q 114 792 124 763 z "},"ä":{"ha":657,"x_min":69,"x_max":599,"o":"m 539 479 l 533 279 q 544 94 533 185 l 596 90 q 599 49 599 68 q 594 10 599 31 q 438 -4 554 8 q 422 61 428 22 q 235 -21 314 -21 q 113 30 157 -21 q 69 174 69 81 q 128 322 69 268 q 277 376 188 376 q 431 343 367 376 q 432 393 432 358 q 403 541 432 496 q 317 586 375 586 q 232 564 258 586 q 243 508 243 542 q 222 451 243 475 q 161 426 200 426 q 96 503 96 426 q 154 622 96 581 q 318 664 213 664 q 481 615 424 664 q 539 479 539 565 m 425 256 q 303 304 368 304 q 178 193 178 304 q 276 79 178 79 q 353 98 313 79 q 418 144 394 117 q 425 256 425 228 m 281 832 q 200 756 281 756 q 138 819 138 756 q 218 897 138 897 q 281 832 281 897 m 489 832 q 408 756 489 756 q 346 819 346 756 q 426 897 346 897 q 489 832 489 897 z "},"å":{"ha":657,"x_min":69,"x_max":599,"o":"m 539 479 l 533 279 q 544 94 533 185 l 596 90 q 599 49 599 68 q 594 10 599 31 q 438 -4 554 8 q 422 61 428 22 q 235 -21 314 -21 q 113 30 157 -21 q 69 174 69 81 q 128 322 69 268 q 277 376 188 376 q 431 343 367 376 q 432 393 432 358 q 403 541 432 496 q 317 586 375 586 q 232 564 258 586 q 243 508 243 542 q 222 451 243 475 q 161 426 200 426 q 96 503 96 426 q 154 622 96 581 q 318 664 213 664 q 481 615 424 664 q 539 479 539 565 m 425 256 q 303 304 368 304 q 178 193 178 304 q 276 79 178 79 q 353 98 313 79 q 418 144 394 117 q 425 256 425 228 m 332 963 q 413 935 389 963 q 436 852 436 908 q 406 764 436 796 q 313 732 376 732 q 208 847 208 732 q 332 963 208 963 m 329 911 q 263 849 263 911 q 275 798 263 813 q 315 783 288 783 q 382 850 382 783 q 329 911 382 911 z "},"æ":{"ha":994,"x_min":69,"x_max":925,"o":"m 232 564 q 243 511 243 544 q 223 452 243 478 q 161 426 203 426 q 96 501 96 426 q 329 664 96 664 q 506 569 451 664 q 692 664 581 664 q 863 602 803 664 q 924 443 924 540 q 907 342 924 394 q 700 308 803 308 q 544 315 597 308 q 617 101 544 149 q 701 79 650 79 q 874 165 785 79 q 925 56 914 124 q 690 -22 814 -22 q 478 92 538 -22 q 362 5 415 31 q 231 -21 308 -21 q 112 31 154 -21 q 69 180 69 83 q 133 326 69 276 q 282 376 196 376 q 431 343 368 376 q 432 401 432 371 q 431 450 432 431 q 424 499 431 469 q 406 544 418 529 q 317 586 376 586 q 232 564 258 586 m 276 79 q 447 175 371 79 q 436 246 442 199 q 290 304 371 304 q 209 277 240 304 q 178 193 178 250 q 276 79 178 79 m 690 586 q 546 396 560 586 q 681 389 604 389 q 800 403 757 389 q 806 454 806 453 q 778 547 806 508 q 690 586 750 586 z "},"ç":{"ha":597,"x_min":63,"x_max":542,"o":"m 468 426 q 408 451 429 426 q 386 510 386 475 q 396 564 386 546 q 324 588 365 588 q 176 326 176 588 q 214 143 176 207 q 320 79 251 79 q 490 165 389 79 q 542 56 531 124 q 326 -21 433 -17 l 329 -75 q 469 -172 469 -81 q 315 -292 469 -292 q 213 -275 253 -292 q 211 -249 211 -271 q 229 -200 211 -228 q 317 -228 260 -228 q 375 -174 375 -228 q 313 -132 375 -132 q 246 -137 285 -132 l 267 -18 q 112 83 161 -4 q 63 333 63 171 q 129 580 63 496 q 318 664 196 664 q 474 619 414 664 q 533 500 533 574 q 468 426 533 426 z "},"è":{"ha":626,"x_min":63,"x_max":557,"o":"m 303 308 q 176 315 235 308 q 333 79 179 79 q 506 165 411 79 q 557 56 546 124 q 315 -21 443 -21 q 125 67 188 -21 q 63 326 63 156 q 133 581 63 497 q 332 664 203 664 q 490 606 428 664 q 553 463 553 547 q 539 342 554 378 q 303 308 435 308 m 322 586 q 178 396 193 586 q 315 389 240 389 q 432 403 390 389 q 438 454 438 438 q 406 551 438 515 q 322 586 375 586 m 378 733 q 122 838 206 804 q 136 899 124 876 q 178 947 149 922 q 310 848 242 893 q 406 785 379 803 q 378 733 399 756 z "},"é":{"ha":626,"x_min":63,"x_max":557,"o":"m 303 308 q 176 315 235 308 q 333 79 179 79 q 506 165 411 79 q 557 56 546 124 q 315 -21 443 -21 q 125 67 188 -21 q 63 326 63 156 q 133 581 63 497 q 332 664 203 664 q 490 606 428 664 q 553 463 553 547 q 539 342 554 378 q 303 308 435 308 m 322 586 q 178 396 193 586 q 315 389 240 389 q 432 403 390 389 q 438 454 438 438 q 406 551 438 515 q 322 586 375 586 m 235 733 q 207 785 214 756 q 274 829 233 803 q 333 869 314 856 q 435 947 389 908 q 476 899 464 922 q 490 838 489 876 q 235 733 407 804 z "},"ê":{"ha":626,"x_min":63,"x_max":557,"o":"m 303 308 q 176 315 235 308 q 333 79 179 79 q 506 165 411 79 q 557 56 546 124 q 315 -21 443 -21 q 125 67 188 -21 q 63 326 63 156 q 133 581 63 497 q 332 664 203 664 q 490 606 428 664 q 553 463 553 547 q 539 342 554 378 q 303 308 435 308 m 322 586 q 178 396 193 586 q 315 389 240 389 q 432 403 390 389 q 438 454 438 438 q 406 551 438 515 q 322 586 375 586 m 486 733 l 328 821 q 169 733 282 796 q 142 785 147 758 q 208 839 167 806 q 328 947 292 910 q 426 858 364 910 q 514 785 489 806 q 486 733 507 756 z "},"ë":{"ha":626,"x_min":63,"x_max":557,"o":"m 303 308 q 176 315 235 308 q 333 79 179 79 q 506 165 411 79 q 557 56 546 124 q 315 -21 443 -21 q 125 67 188 -21 q 63 326 63 156 q 133 581 63 497 q 332 664 203 664 q 490 606 428 664 q 553 463 553 547 q 539 342 554 378 q 303 308 435 308 m 322 586 q 178 396 193 586 q 315 389 240 389 q 432 403 390 389 q 438 454 438 438 q 406 551 438 515 q 322 586 375 586 m 301 843 q 221 767 301 767 q 158 831 158 767 q 239 908 158 908 q 301 843 301 908 m 510 843 q 429 767 510 767 q 367 831 367 767 q 447 908 367 908 q 510 843 510 908 z "},"ì":{"ha":365,"x_min":19,"x_max":307,"o":"m 126 81 q 139 330 139 217 q 128 565 139 443 l 76 569 q 72 615 72 593 q 74 647 72 636 q 246 660 154 650 l 253 653 q 240 378 240 571 q 253 81 240 185 l 304 76 q 307 38 307 54 q 303 -1 307 22 q 190 0 254 0 q 79 -1 126 0 q 75 35 75 19 q 78 76 75 51 l 126 81 m 275 733 q 19 838 103 804 q 33 899 21 876 q 75 947 46 922 q 208 848 139 893 q 303 785 276 803 q 275 733 296 756 z "},"í":{"ha":365,"x_min":72,"x_max":372,"o":"m 117 733 q 89 785 96 756 q 156 829 115 803 q 214 869 196 856 q 317 947 271 908 q 358 899 346 922 q 372 838 371 876 q 117 733 289 804 m 126 81 q 139 330 139 217 q 128 565 139 443 l 76 569 q 72 615 72 593 q 74 647 72 636 q 246 660 154 650 l 253 653 q 240 378 240 571 q 253 81 240 185 l 304 76 q 307 38 307 54 q 303 -1 307 22 q 190 0 254 0 q 79 -1 126 0 q 75 35 75 19 q 78 76 75 51 l 126 81 z "},"î":{"ha":365,"x_min":3,"x_max":375,"o":"m 126 81 q 139 330 139 217 q 128 565 139 443 l 76 569 q 72 615 72 593 q 74 647 72 636 q 246 660 154 650 l 253 653 q 240 378 240 571 q 253 81 240 185 l 304 76 q 307 38 307 54 q 303 -1 307 22 q 190 0 254 0 q 79 -1 126 0 q 75 35 75 19 q 78 76 75 51 l 126 81 m 347 733 l 189 821 q 31 733 143 796 q 3 785 8 758 q 69 839 28 806 q 189 947 153 910 q 288 858 225 910 q 375 785 350 806 q 347 733 368 756 z "},"ï":{"ha":365,"x_min":13,"x_max":364,"o":"m 126 81 q 139 330 139 217 q 128 565 139 443 l 76 569 q 72 615 72 593 q 74 647 72 636 q 246 660 154 650 l 253 653 q 240 378 240 571 q 253 81 240 185 l 304 76 q 307 38 307 54 q 303 -1 307 22 q 190 0 254 0 q 79 -1 126 0 q 75 35 75 19 q 78 76 75 51 l 126 81 m 156 843 q 75 767 156 767 q 13 831 13 767 q 93 908 13 908 q 156 843 156 908 m 364 843 q 283 767 364 767 q 221 831 221 767 q 301 908 221 908 q 364 843 364 908 z "},"ð":{"ha":675,"x_min":76,"x_max":599,"o":"m 599 342 q 535 67 599 154 q 338 -21 472 -21 q 140 64 203 -21 q 76 321 76 149 q 325 664 76 664 q 464 604 400 664 q 346 790 419 722 q 231 719 275 749 q 201 779 201 735 q 292 829 242 800 q 171 885 244 857 q 189 954 171 932 q 365 871 288 924 q 488 946 454 921 q 518 883 515 928 q 415 829 471 860 q 599 342 599 658 m 190 333 q 190 206 190 333 q 338 79 190 79 q 485 333 485 79 q 338 586 485 586 q 190 333 190 586 z "},"ñ":{"ha":740,"x_min":72,"x_max":682,"o":"m 615 486 l 614 351 q 631 81 614 206 l 679 76 q 682 34 682 46 q 678 -1 682 22 q 561 0 639 0 q 450 -1 483 0 q 446 38 446 19 q 449 76 446 57 l 497 81 q 508 359 508 243 q 485 525 508 475 q 407 575 463 575 q 242 485 332 575 q 240 316 240 449 q 253 81 240 183 l 304 76 q 307 34 307 46 q 303 -1 307 22 q 189 0 264 0 q 79 -1 114 0 q 75 38 75 19 q 78 76 75 57 l 126 81 q 139 335 139 219 q 128 565 139 451 l 76 569 q 72 616 72 593 q 74 647 72 639 q 246 660 144 649 l 253 653 q 244 569 250 636 q 344 638 288 613 q 451 664 401 664 q 615 486 615 664 m 169 792 q 229 862 189 831 q 306 893 269 893 q 385 870 342 893 q 453 847 429 847 q 522 903 488 847 q 569 857 560 886 q 510 788 550 819 q 433 756 469 756 q 352 778 396 756 q 278 801 308 801 q 214 746 249 801 q 169 792 179 763 z "},"ò":{"ha":647,"x_min":63,"x_max":585,"o":"m 63 329 q 324 664 63 664 q 585 329 585 664 q 536 85 585 175 q 324 -21 481 -21 q 111 85 167 -21 q 63 329 63 175 m 176 333 q 176 206 176 333 q 324 79 176 79 q 471 333 471 79 q 324 586 471 586 q 176 333 176 586 m 396 733 q 140 838 224 804 q 154 899 142 876 q 196 947 167 922 q 328 848 260 893 q 424 785 397 803 q 396 733 417 756 z "},"ó":{"ha":647,"x_min":63,"x_max":585,"o":"m 63 329 q 324 664 63 664 q 585 329 585 664 q 536 85 585 175 q 324 -21 481 -21 q 111 85 167 -21 q 63 329 63 175 m 176 333 q 176 206 176 333 q 324 79 176 79 q 471 333 471 79 q 324 586 471 586 q 176 333 176 586 m 251 733 q 224 785 231 756 q 290 829 250 803 q 350 869 331 856 q 451 947 406 908 q 493 899 481 922 q 507 838 506 876 q 251 733 424 804 z "},"ô":{"ha":647,"x_min":63,"x_max":585,"o":"m 63 329 q 324 664 63 664 q 585 329 585 664 q 536 85 585 175 q 324 -21 481 -21 q 111 85 167 -21 q 63 329 63 175 m 176 333 q 176 206 176 333 q 324 79 176 79 q 471 333 471 79 q 324 586 471 586 q 176 333 176 586 m 482 733 l 324 821 q 165 733 278 796 q 138 785 143 758 q 203 839 163 806 q 324 947 288 910 q 422 858 360 910 q 510 785 485 806 q 482 733 503 756 z "},"õ":{"ha":647,"x_min":63,"x_max":585,"o":"m 63 329 q 324 664 63 664 q 585 329 585 664 q 536 85 585 175 q 324 -21 481 -21 q 111 85 167 -21 q 63 329 63 175 m 176 333 q 176 206 176 333 q 324 79 176 79 q 471 333 471 79 q 324 586 471 586 q 176 333 176 586 m 124 792 q 183 862 143 831 q 260 893 224 893 q 340 870 296 893 q 407 847 383 847 q 476 903 442 847 q 524 857 514 886 q 464 788 504 819 q 387 756 424 756 q 306 778 350 756 q 233 801 263 801 q 168 746 203 801 q 124 792 133 763 z "},"ö":{"ha":647,"x_min":63,"x_max":585,"o":"m 63 329 q 324 664 63 664 q 585 329 585 664 q 536 85 585 175 q 324 -21 481 -21 q 111 85 167 -21 q 63 329 63 175 m 176 333 q 176 206 176 333 q 324 79 176 79 q 471 333 471 79 q 324 586 471 586 q 176 333 176 586 m 290 843 q 210 767 290 767 q 147 831 147 767 q 228 908 147 908 q 290 843 290 908 m 499 843 q 418 767 499 767 q 356 831 356 767 q 436 908 356 908 q 499 843 499 908 z "},"÷":{"ha":835,"x_min":121,"x_max":714,"o":"m 704 397 q 456 410 576 410 q 243 403 336 410 q 125 390 150 397 q 121 446 121 410 q 131 513 121 482 q 363 500 226 500 q 710 519 640 500 q 714 464 714 500 q 704 397 714 428 m 507 694 q 482 625 507 653 q 406 597 457 597 q 326 678 326 597 q 428 778 326 778 q 507 694 507 778 m 507 229 q 482 160 507 188 q 406 132 457 132 q 326 213 326 132 q 428 313 326 313 q 507 229 507 313 z "},"ø":{"ha":647,"x_min":63,"x_max":585,"o":"m 203 -112 q 135 -90 163 -112 q 179 14 149 -56 q 63 329 63 85 q 324 664 63 664 q 413 651 372 664 l 444 751 q 486 754 461 754 q 540 732 511 754 q 489 613 522 693 q 585 329 585 532 q 536 85 585 175 q 324 -21 481 -21 q 260 -15 299 -21 q 229 -110 246 -57 q 203 -112 210 -112 m 176 329 q 224 124 176 183 q 385 571 301 321 q 324 586 358 586 q 176 329 176 586 m 324 79 q 471 329 471 79 q 443 503 471 439 q 292 82 364 299 q 324 79 301 79 z "},"ù":{"ha":697,"x_min":49,"x_max":639,"o":"m 114 179 l 115 328 q 104 565 115 451 l 53 569 q 49 615 49 592 q 50 647 49 639 q 222 660 121 649 l 229 653 q 217 360 217 571 l 217 294 q 238 128 217 178 q 311 79 260 79 q 468 164 383 79 q 471 288 471 196 l 471 328 q 460 565 471 451 l 408 569 q 404 616 404 593 q 406 647 404 639 q 578 660 476 649 l 585 653 q 572 360 572 571 l 572 315 q 585 93 572 201 l 636 90 q 639 45 639 60 q 635 10 639 31 q 483 -4 581 7 q 467 65 472 21 q 275 -21 363 -21 q 151 28 188 -21 q 114 179 114 76 m 415 733 q 160 838 243 804 q 174 899 161 876 q 215 947 186 922 q 348 848 279 893 q 443 785 417 803 q 415 733 436 756 z "},"ú":{"ha":697,"x_min":49,"x_max":639,"o":"m 114 179 l 115 328 q 104 565 115 451 l 53 569 q 49 615 49 592 q 50 647 49 639 q 222 660 121 649 l 229 653 q 217 360 217 571 l 217 294 q 238 128 217 178 q 311 79 260 79 q 468 164 383 79 q 471 288 471 196 l 471 328 q 460 565 471 451 l 408 569 q 404 616 404 593 q 406 647 404 639 q 578 660 476 649 l 585 653 q 572 360 572 571 l 572 315 q 585 93 572 201 l 636 90 q 639 45 639 60 q 635 10 639 31 q 483 -4 581 7 q 467 65 472 21 q 275 -21 363 -21 q 151 28 188 -21 q 114 179 114 76 m 272 733 q 244 785 251 756 q 311 829 271 803 q 369 869 351 856 q 472 947 426 908 q 514 899 501 922 q 528 838 526 876 q 272 733 444 804 z "},"û":{"ha":697,"x_min":49,"x_max":639,"o":"m 114 179 l 115 328 q 104 565 115 451 l 53 569 q 49 615 49 592 q 50 647 49 639 q 222 660 121 649 l 229 653 q 217 360 217 571 l 217 294 q 238 128 217 178 q 311 79 260 79 q 468 164 383 79 q 471 288 471 196 l 471 328 q 460 565 471 451 l 408 569 q 404 616 404 593 q 406 647 404 639 q 578 660 476 649 l 585 653 q 572 360 572 571 l 572 315 q 585 93 572 201 l 636 90 q 639 45 639 60 q 635 10 639 31 q 483 -4 581 7 q 467 65 472 21 q 275 -21 363 -21 q 151 28 188 -21 q 114 179 114 76 m 503 733 l 344 821 q 186 733 299 796 q 158 785 164 758 q 225 839 183 806 q 344 947 308 910 q 443 858 381 910 q 531 785 506 806 q 503 733 524 756 z "},"ü":{"ha":697,"x_min":49,"x_max":639,"o":"m 114 179 l 115 328 q 104 565 115 451 l 53 569 q 49 615 49 592 q 50 647 49 639 q 222 660 121 649 l 229 653 q 217 360 217 571 l 217 294 q 238 128 217 178 q 311 79 260 79 q 468 164 383 79 q 471 288 471 196 l 471 328 q 460 565 471 451 l 408 569 q 404 616 404 593 q 406 647 404 639 q 578 660 476 649 l 585 653 q 572 360 572 571 l 572 315 q 585 93 572 201 l 636 90 q 639 45 639 60 q 635 10 639 31 q 483 -4 581 7 q 467 65 472 21 q 275 -21 363 -21 q 151 28 188 -21 q 114 179 114 76 m 311 843 q 231 767 311 767 q 168 831 168 767 q 249 908 168 908 q 311 843 311 908 m 519 843 q 439 767 519 767 q 376 831 376 767 q 457 908 376 908 q 519 843 519 908 z "},"ý":{"ha":610,"x_min":-24,"x_max":603,"o":"m 367 571 q 364 608 364 585 q 368 649 364 631 q 484 647 410 647 q 599 649 558 647 q 603 610 603 631 q 600 571 603 589 l 558 567 q 462 288 521 465 q 373 26 403 110 q 317 -108 343 -57 q 261 -206 292 -160 q 123 -292 203 -292 q -24 -247 43 -292 q 22 -132 -18 -167 q 124 -189 64 -189 q 265 -8 188 -189 q 42 567 194 240 l -4 571 q -7 609 -7 588 q -3 649 -7 631 q 117 647 38 647 q 239 649 197 647 q 243 609 243 631 q 240 571 243 588 l 183 567 q 319 154 210 413 l 325 154 q 425 567 394 379 l 367 571 m 263 733 q 235 785 242 756 q 301 829 261 803 q 361 869 342 856 q 463 947 417 908 q 504 899 492 922 q 518 838 517 876 q 263 733 435 804 z "},"þ":{"ha":686,"x_min":44,"x_max":610,"o":"m 414 664 q 610 331 610 664 q 558 99 610 203 q 476 11 532 43 q 352 -21 421 -21 q 211 13 283 -21 q 224 -210 218 -161 l 275 -214 l 278 -250 q 274 -292 278 -272 q 160 -290 235 -290 q 50 -292 85 -290 q 46 -251 46 -267 q 49 -214 46 -235 l 100 -210 q 111 246 111 -69 l 111 513 q 104 853 111 763 l 49 857 q 44 899 44 875 q 46 935 44 924 q 226 947 172 942 l 232 940 q 213 569 213 775 q 414 664 311 664 m 340 79 q 492 349 492 79 q 439 556 492 513 q 372 575 413 575 q 288 549 332 575 q 213 485 243 522 q 210 111 210 369 q 340 79 290 79 z "},"ÿ":{"ha":610,"x_min":-24,"x_max":603,"o":"m 367 571 q 364 608 364 585 q 368 649 364 631 q 484 647 410 647 q 599 649 558 647 q 603 610 603 631 q 600 571 603 589 l 558 567 q 462 288 521 465 q 373 26 403 110 q 317 -108 343 -57 q 261 -206 292 -160 q 123 -292 203 -292 q -24 -247 43 -292 q 22 -132 -18 -167 q 124 -189 64 -189 q 265 -8 188 -189 q 42 567 194 240 l -4 571 q -7 609 -7 588 q -3 649 -7 631 q 117 647 38 647 q 239 649 197 647 q 243 609 243 631 q 240 571 243 588 l 183 567 q 319 154 210 413 l 325 154 q 425 567 394 379 l 367 571 m 303 843 q 222 767 303 767 q 160 831 160 767 q 240 908 160 908 q 303 843 303 908 m 511 843 q 431 767 511 767 q 368 831 368 767 q 449 908 368 908 q 511 843 511 908 z "},"ı":{"ha":365,"x_min":72,"x_max":307,"o":"m 126 81 q 139 330 139 217 q 128 565 139 443 l 76 569 q 72 615 72 593 q 74 647 72 636 q 246 660 154 650 l 253 653 q 240 378 240 571 q 253 81 240 185 l 304 76 q 307 38 307 54 q 303 -1 307 22 q 190 0 254 0 q 79 -1 126 0 q 75 35 75 19 q 78 76 75 51 l 126 81 z "},"Ł":{"ha":615,"x_min":38,"x_max":614,"o":"m 46 308 q 38 349 38 325 q 46 408 38 372 l 154 444 q 142 811 154 700 l 94 815 q 92 853 92 838 q 96 893 92 869 q 208 892 144 892 q 319 893 272 892 q 324 856 324 872 q 321 815 324 840 l 268 811 q 258 481 258 683 q 438 554 393 529 q 446 513 446 538 q 438 454 446 489 l 258 392 q 268 106 258 219 q 394 101 311 101 q 519 108 476 101 l 524 203 q 566 207 547 207 q 601 206 585 207 q 614 0 606 100 l 607 -7 q 342 0 542 0 q 94 -1 142 0 q 90 35 90 19 q 93 76 90 51 l 142 81 q 153 354 150 219 q 46 308 74 324 z "},"ł":{"ha":350,"x_min":19,"x_max":347,"o":"m 129 322 l 129 358 q 29 314 64 333 q 19 359 19 332 q 29 414 19 386 l 129 447 l 129 513 q 122 853 129 763 l 67 857 q 63 899 63 875 q 64 935 63 924 q 244 947 190 942 l 250 940 q 231 585 231 775 l 231 483 q 338 531 297 508 q 347 488 347 513 q 338 431 347 464 l 231 394 l 231 356 q 243 81 231 185 l 294 76 q 297 38 297 54 q 293 -1 297 22 q 181 0 244 0 q 69 -1 117 0 q 65 35 65 19 q 68 76 65 51 l 117 81 q 129 322 129 211 z "},"Œ":{"ha":1119,"x_min":76,"x_max":1043,"o":"m 694 0 l 549 -1 q 410 -21 490 -21 q 267 6 331 -21 q 168 74 204 32 q 110 181 132 115 q 83 308 89 246 q 76 454 76 371 q 417 910 76 910 q 526 894 474 910 q 778 888 639 888 q 1029 900 917 888 l 1036 893 q 1024 696 1026 786 q 988 694 1007 694 q 946 699 969 694 l 942 793 q 788 797 858 797 q 668 793 717 797 q 660 507 660 714 q 765 506 689 506 q 907 513 842 506 l 911 564 q 950 567 933 567 q 989 563 967 567 q 988 451 988 514 q 989 363 988 388 q 952 358 968 358 q 911 361 936 358 l 907 410 q 793 413 854 413 q 660 410 732 413 q 669 106 660 228 q 809 101 713 101 q 949 108 906 101 l 953 203 q 994 207 975 207 q 1031 206 1014 207 q 1043 0 1035 100 l 1036 -7 q 694 0 926 0 m 300 113 q 422 82 347 82 q 550 124 497 82 q 556 436 556 285 q 538 789 556 588 q 417 828 486 828 q 242 726 297 828 q 186 453 186 625 q 300 113 186 185 z "},"œ":{"ha":1033,"x_min":63,"x_max":964,"o":"m 324 664 q 533 551 471 664 q 739 664 604 664 q 905 600 847 664 q 963 442 963 536 q 946 342 963 392 q 739 308 842 308 q 585 315 636 308 q 658 100 585 144 q 740 79 692 79 q 913 165 819 79 q 964 56 953 124 q 729 -22 849 -22 q 526 89 588 -22 q 324 -21 465 -21 q 111 85 167 -21 q 63 329 63 175 q 324 664 63 664 m 176 333 q 176 206 176 333 q 324 79 176 79 q 471 333 471 79 q 324 586 471 586 q 176 333 176 586 m 729 586 q 585 396 600 586 q 720 389 644 389 q 839 403 796 389 q 843 453 843 428 q 816 548 843 510 q 729 586 789 586 z "},"Š":{"ha":667,"x_min":44,"x_max":614,"o":"m 117 271 q 183 244 160 271 q 207 180 207 218 q 194 118 207 142 q 335 68 256 68 q 456 105 415 68 q 496 206 496 142 q 451 315 496 269 q 344 392 407 361 q 218 456 281 422 q 111 547 156 490 q 67 682 67 604 q 138 849 67 789 q 319 910 208 910 q 512 857 431 910 q 593 715 593 804 q 521 625 593 625 q 454 651 478 625 q 431 719 431 678 q 447 783 431 761 q 328 828 399 828 q 222 792 257 828 q 186 701 186 756 q 218 609 186 647 q 297 547 250 571 q 400 491 344 522 q 503 429 456 460 q 582 347 550 399 q 614 228 614 294 q 538 49 614 118 q 344 -21 463 -21 q 135 34 226 -21 q 44 188 44 89 q 117 271 44 271 m 154 1160 q 331 1088 249 1131 q 518 1160 451 1143 q 539 1106 535 1135 q 458 1060 493 1079 q 331 964 383 1017 q 132 1107 269 1022 q 154 1160 136 1136 z "},"š":{"ha":560,"x_min":40,"x_max":501,"o":"m 279 664 q 328 664 279 664 q 434 618 376 664 q 492 499 492 572 q 426 426 492 426 q 366 451 388 426 q 344 508 344 475 q 356 564 344 542 q 276 590 322 590 q 201 568 231 590 q 171 503 171 546 q 205 428 171 460 q 288 376 239 396 q 385 334 336 356 q 467 273 433 313 q 501 175 501 233 q 441 32 501 85 q 276 -21 381 -21 q 106 24 172 -21 q 40 140 40 68 l 40 146 q 106 221 40 221 q 166 197 144 221 q 188 140 188 172 q 181 90 188 108 q 269 72 208 72 q 360 93 329 72 q 392 151 392 114 q 358 217 392 188 q 275 266 324 246 q 178 309 226 286 q 95 375 129 332 q 61 478 61 418 q 122 614 61 564 q 279 664 182 664 m 119 933 l 278 846 q 436 933 324 871 q 464 882 458 908 q 397 828 439 861 q 278 719 314 757 q 179 809 242 757 q 92 882 117 861 q 119 933 99 911 z "},"Ÿ":{"ha":688,"x_min":1,"x_max":686,"o":"m 456 815 q 453 853 453 838 q 457 893 453 869 q 567 892 501 892 q 682 893 633 892 q 686 849 686 869 q 683 815 686 829 l 635 811 q 410 269 444 401 q 421 81 414 164 l 471 76 q 474 38 474 54 q 469 -1 474 22 q 357 0 421 0 q 246 -1 293 0 q 242 35 242 19 q 244 76 242 51 l 293 81 q 303 272 301 201 q 108 708 267 392 q 56 811 64 794 l 4 815 q 1 853 1 838 q 6 893 1 869 q 126 892 54 892 q 244 893 197 892 q 249 856 249 872 q 246 815 249 840 l 196 811 q 283 579 222 713 q 361 407 344 446 l 367 407 q 446 595 404 479 q 507 811 488 711 l 456 815 m 322 1054 q 242 978 322 978 q 179 1042 179 978 q 260 1119 179 1119 q 322 1054 322 1119 m 531 1054 q 450 978 531 978 q 388 1042 388 978 q 468 1119 388 1119 q 531 1054 531 1119 z "},"Ž":{"ha":675,"x_min":42,"x_max":633,"o":"m 219 106 q 351 101 276 101 q 539 111 425 101 l 543 207 q 585 211 567 211 q 621 210 604 211 q 633 -1 625 96 l 626 -8 q 349 4 528 4 q 51 -6 169 4 q 42 44 43 15 q 264 419 101 139 q 486 796 426 699 q 356 797 439 797 q 158 788 272 797 l 154 685 q 113 681 132 681 q 76 682 93 681 q 64 893 72 796 l 71 900 q 372 888 174 888 q 626 896 569 888 q 633 843 633 882 q 411 444 574 731 q 219 106 249 158 m 154 1160 q 331 1088 249 1131 q 518 1160 451 1143 q 539 1106 535 1135 q 458 1060 493 1079 q 331 964 383 1017 q 132 1107 269 1022 q 154 1160 136 1136 z "},"ž":{"ha":556,"x_min":21,"x_max":508,"o":"m 418 178 q 460 182 440 182 q 496 181 479 182 q 508 -3 499 114 l 501 -10 q 278 3 414 3 q 31 -6 143 3 q 21 44 22 15 q 201 308 81 138 q 371 551 321 478 q 117 542 210 549 l 113 469 q 71 465 90 465 q 35 467 51 465 q 22 650 32 533 l 29 657 q 271 644 117 644 q 500 653 425 644 q 507 600 507 639 q 345 335 451 494 q 197 101 239 176 q 414 111 326 103 l 418 178 m 111 933 l 269 846 q 428 933 315 871 q 456 882 450 908 q 389 828 431 861 q 269 719 306 757 q 171 809 233 757 q 83 882 108 861 q 111 933 90 911 z "},"ƒ":{"ha":556,"x_min":-74,"x_max":576,"o":"m 269 381 q 288 -96 288 -89 q 236 -244 288 -197 q 99 -292 185 -292 q -72 -261 13 -292 l -74 -243 q -49 -142 -74 -189 q 92 -190 40 -190 q 159 -144 144 -190 q 174 11 174 -99 q 157 382 174 121 l 32 382 q 21 424 21 404 q 25 460 21 443 l 153 460 q 147 658 147 643 q 201 861 147 797 q 363 925 254 925 q 524 872 471 925 q 576 747 576 818 q 511 675 576 675 q 455 694 479 675 q 430 746 431 713 q 436 793 429 779 q 358 843 415 843 q 283 791 301 843 q 264 630 264 739 q 267 461 264 521 q 488 471 389 464 q 497 423 497 451 q 492 374 497 394 q 269 381 419 378 z "},"ˆ":{"ha":678,"x_min":153,"x_max":525,"o":"m 497 733 q 339 821 497 733 q 181 733 293 796 q 153 785 158 758 q 219 839 178 806 q 339 947 303 910 q 438 858 375 910 q 525 785 500 806 q 497 733 518 756 z "},"ˇ":{"ha":678,"x_min":153,"x_max":525,"o":"m 181 933 q 339 846 181 933 q 497 933 385 871 q 525 882 519 908 q 458 828 500 861 q 339 719 375 757 q 240 809 303 757 q 153 882 178 861 q 181 933 160 911 z "},"˘":{"ha":658,"x_min":153,"x_max":506,"o":"m 247 858 q 261 845 247 858 q 329 832 276 832 q 413 858 382 832 q 467 933 443 883 q 506 882 499 917 q 437 777 483 821 q 329 733 390 733 q 222 777 268 733 q 153 882 175 821 q 192 933 160 917 q 247 858 217 883 z "},"˙":{"ha":326,"x_min":83,"x_max":242,"o":"m 242 865 q 153 779 242 779 q 83 850 83 779 q 172 938 83 938 q 242 865 242 938 z "},"˚":{"ha":536,"x_min":153,"x_max":381,"o":"m 276 963 q 357 935 333 963 q 381 852 381 908 q 351 764 381 796 q 257 732 321 732 q 153 847 153 732 q 276 963 153 963 m 274 911 q 207 849 207 911 q 219 798 207 813 q 260 783 232 783 q 326 850 326 783 q 274 911 326 911 z "},"˛":{"ha":444,"x_min":69,"x_max":375,"o":"m 168 -160 q 226 -217 168 -217 q 353 -146 301 -217 q 375 -232 375 -182 q 217 -292 314 -292 q 108 -256 147 -292 q 69 -163 69 -221 q 121 -51 69 -106 q 263 29 172 4 l 317 4 q 208 -67 249 -18 q 168 -160 168 -115 z "},"˜":{"ha":706,"x_min":153,"x_max":553,"o":"m 153 792 q 213 862 172 831 q 289 893 253 893 q 369 870 325 893 q 436 847 413 847 q 506 903 471 847 q 553 857 543 886 q 493 788 533 819 q 416 756 453 756 q 335 778 379 756 q 262 801 292 801 q 197 746 232 801 q 153 792 163 763 z "},"˝":{"ha":1178,"x_min":164,"x_max":700,"o":"m 203 733 q 164 785 181 750 q 220 829 186 803 q 269 869 254 856 q 353 947 310 901 q 409 900 390 922 q 436 838 428 878 q 203 733 317 788 m 467 733 q 428 785 444 750 q 484 829 450 803 q 533 869 518 856 q 617 947 574 901 q 673 900 654 922 q 700 838 692 878 q 467 733 536 768 z "},"π":{"ha":863,"x_min":69,"x_max":793,"o":"m 686 553 q 675 308 675 425 q 688 90 675 192 l 738 86 q 740 47 740 67 q 736 6 740 28 q 574 -8 658 3 q 558 57 564 18 q 574 331 574 218 q 560 558 574 443 q 424 560 506 560 q 311 558 342 560 q 300 306 300 428 q 313 81 300 185 l 364 76 q 367 38 367 54 q 363 -1 367 22 q 250 0 314 0 q 139 -1 186 0 q 135 35 135 19 q 138 76 135 51 l 186 81 q 199 323 199 217 q 186 551 199 429 q 76 540 88 543 q 69 595 69 561 q 82 663 69 629 q 365 650 200 650 q 786 669 704 650 q 793 615 793 649 q 781 547 793 581 q 686 553 747 550 z "},"–":{"ha":697,"x_min":28,"x_max":669,"o":"m 658 299 q 384 311 522 311 q 153 304 246 311 q 33 292 60 297 q 28 344 28 311 q 39 414 28 378 q 282 401 142 401 q 531 408 422 401 q 664 421 639 414 q 669 365 669 396 q 658 299 669 335 z "},"—":{"ha":1015,"x_min":28,"x_max":988,"o":"m 968 299 q 554 311 740 311 q 225 304 368 311 q 36 292 82 297 q 28 345 28 311 q 47 414 28 379 q 436 401 218 401 q 979 421 858 401 q 988 365 988 396 q 968 299 988 333 z "},"‘":{"ha":363,"x_min":83,"x_max":279,"o":"m 272 947 q 279 913 279 926 q 275 879 279 900 q 182 783 182 879 q 218 744 182 749 q 271 676 271 740 q 248 602 271 628 q 165 576 225 576 q 83 688 83 576 q 128 873 83 799 q 272 947 172 947 z "},"’":{"ha":363,"x_min":83,"x_max":279,"o":"m 90 576 q 83 610 83 597 q 88 644 83 624 q 181 740 181 644 q 144 779 181 775 q 92 847 92 783 q 115 922 92 896 q 197 947 138 947 q 279 836 279 947 q 235 651 279 725 q 90 576 190 576 z "},"‚":{"ha":390,"x_min":111,"x_max":307,"o":"m 118 -211 q 111 -177 111 -190 q 115 -143 111 -164 q 208 -47 208 -143 q 172 -8 208 -12 q 119 60 119 -4 q 142 134 119 108 q 225 160 165 160 q 307 49 307 160 q 263 -137 307 -62 q 118 -211 218 -211 z "},"“":{"ha":614,"x_min":83,"x_max":531,"o":"m 272 947 q 279 913 279 926 q 275 879 279 900 q 182 783 182 879 q 218 744 182 749 q 271 676 271 740 q 248 602 271 628 q 165 576 225 576 q 83 688 83 576 q 128 873 83 799 q 272 947 172 947 m 524 947 q 531 913 531 926 q 526 879 531 900 q 433 783 433 879 q 469 744 433 749 q 522 676 522 740 q 499 602 522 628 q 417 576 476 576 q 335 688 335 576 q 379 873 335 799 q 524 947 424 947 z "},"”":{"ha":614,"x_min":83,"x_max":531,"o":"m 90 576 q 83 610 83 597 q 88 644 83 624 q 181 740 181 644 q 144 779 181 775 q 92 847 92 783 q 115 922 92 896 q 197 947 138 947 q 279 836 279 947 q 235 651 279 725 q 90 576 190 576 m 342 576 q 335 610 335 597 q 339 644 335 624 q 432 740 432 644 q 396 779 432 775 q 343 847 343 783 q 366 922 343 896 q 449 947 389 947 q 531 836 531 947 q 486 651 531 725 q 342 576 442 576 z "},"„":{"ha":642,"x_min":111,"x_max":558,"o":"m 118 -211 q 111 -177 111 -190 q 115 -143 111 -164 q 208 -47 208 -143 q 172 -8 208 -12 q 119 60 119 -4 q 142 134 119 108 q 225 160 165 160 q 307 49 307 160 q 263 -137 307 -62 q 118 -211 218 -211 m 369 -211 q 363 -177 363 -190 q 367 -143 363 -164 q 460 -47 460 -143 q 424 -8 460 -12 q 371 60 371 -4 q 394 134 371 108 q 476 160 417 160 q 558 49 558 160 q 514 -137 558 -62 q 369 -211 469 -211 z "},"†":{"ha":593,"x_min":14,"x_max":579,"o":"m 346 469 q 369 -3 346 72 q 285 -17 324 -17 q 222 -14 246 -17 q 242 358 242 149 q 240 628 242 568 q 18 608 60 619 q 14 664 14 628 q 24 731 14 700 q 238 718 117 718 q 218 896 231 824 q 290 910 254 910 q 365 907 326 910 q 350 718 356 829 q 575 738 525 722 q 579 683 579 719 q 569 615 579 646 q 346 628 471 625 l 346 469 z "},"‡":{"ha":593,"x_min":11,"x_max":579,"o":"m 346 469 q 349 265 346 333 q 572 285 522 269 q 576 229 576 265 q 567 163 576 193 q 353 175 490 172 q 369 -3 360 24 q 285 -17 324 -17 q 222 -14 246 -17 q 236 175 232 60 q 15 156 57 167 q 11 210 11 174 q 21 278 11 247 q 239 265 138 265 q 242 468 242 368 q 240 628 242 568 q 18 608 60 619 q 14 664 14 628 q 24 731 14 700 q 238 718 117 718 q 218 896 231 824 q 290 910 254 910 q 365 907 326 910 q 350 718 356 829 q 575 738 525 722 q 579 683 579 719 q 569 615 579 646 q 346 628 471 625 l 346 469 z "},"•":{"ha":419,"x_min":83,"x_max":336,"o":"m 336 465 q 301 367 336 406 q 194 329 267 329 q 83 442 83 329 q 225 582 83 582 q 336 465 336 582 z "},"…":{"ha":1125,"x_min":125,"x_max":1056,"o":"m 306 76 q 281 7 306 35 q 204 -21 256 -21 q 125 60 125 -21 q 226 160 125 160 q 306 76 306 160 m 681 76 q 656 7 681 35 q 579 -21 631 -21 q 500 60 500 -21 q 601 160 500 160 q 681 76 681 160 m 1056 76 q 1031 7 1056 35 q 954 -21 1006 -21 q 875 60 875 -21 q 976 160 875 160 q 1056 76 1056 160 z "},"‰":{"ha":1699,"x_min":69,"x_max":1643,"o":"m 465 -64 q 386 -37 418 -64 q 739 953 558 368 q 775 956 761 956 q 849 931 814 956 q 494 -61 681 543 q 465 -64 472 -64 m 961 549 q 1063 549 961 549 q 1165 268 1165 549 q 961 -12 1165 -12 q 757 268 757 -12 q 961 549 757 549 m 962 475 q 908 475 962 475 q 854 268 854 475 q 962 61 854 61 q 1069 268 1069 61 q 962 475 1069 475 m 274 907 q 376 907 274 907 q 478 626 478 907 q 274 346 478 346 q 69 626 69 346 q 274 907 69 907 m 274 833 q 220 833 274 833 q 167 626 167 833 q 274 419 167 419 q 382 626 382 419 q 274 833 382 833 m 1439 549 q 1541 549 1439 549 q 1643 268 1643 549 q 1439 -12 1643 -12 q 1235 268 1235 -12 q 1439 549 1235 549 m 1440 475 q 1386 475 1440 475 q 1332 268 1332 475 q 1440 61 1332 61 q 1547 268 1547 61 q 1440 475 1547 475 z "},"‹":{"ha":414,"x_min":42,"x_max":317,"o":"m 317 592 q 204 389 207 394 q 317 186 250 303 q 250 150 285 157 q 193 219 225 181 q 144 281 161 258 q 42 389 103 331 q 132 483 103 447 q 193 558 161 519 q 250 628 225 597 q 317 592 289 617 z "},"›":{"ha":414,"x_min":97,"x_max":372,"o":"m 97 592 q 164 628 125 617 q 221 558 189 597 q 269 497 253 519 q 372 389 311 447 q 282 294 311 331 q 221 219 253 258 q 164 150 189 181 q 97 186 129 157 q 210 389 164 303 q 97 592 207 394 z "},"⁄":{"ha":1235,"x_min":386,"x_max":849,"o":"m 465 -64 q 386 -37 418 -64 q 739 953 558 368 q 775 956 761 956 q 849 931 814 956 q 494 -61 681 543 q 465 -64 472 -64 z "},"₀":{"ha":524,"x_min":60,"x_max":468,"o":"m 264 400 q 366 400 264 400 q 468 119 468 400 q 264 -161 468 -161 q 60 119 60 -161 q 264 400 60 400 m 265 326 q 211 326 265 326 q 157 119 157 326 q 265 -87 157 -87 q 372 119 372 -87 q 265 326 372 326 z "},"₁":{"ha":368,"x_min":25,"x_max":344,"o":"m 271 394 q 258 149 258 303 q 265 -83 258 -6 l 343 -90 q 344 -116 344 -99 q 340 -157 344 -133 q 217 -156 293 -156 q 94 -157 140 -156 q 89 -122 89 -140 q 92 -90 89 -103 l 168 -83 q 174 124 174 10 q 171 286 174 238 q 76 215 100 239 q 25 303 36 258 q 208 400 86 328 q 271 394 258 400 z "},"₂":{"ha":485,"x_min":51,"x_max":428,"o":"m 349 -68 l 351 -10 q 389 -6 369 -6 l 421 -6 q 428 -143 424 -81 l 415 -156 q 253 -146 353 -146 l 238 -146 q 57 -160 131 -146 q 51 -115 51 -132 q 185 49 93 -43 q 315 246 315 179 q 296 305 315 278 q 235 332 276 332 q 168 307 194 332 q 175 272 175 293 q 160 232 175 250 q 114 214 144 214 q 65 272 65 214 q 117 365 65 329 q 240 400 169 400 q 360 361 310 400 q 410 249 410 322 q 385 165 410 210 q 337 93 361 121 q 258 8 313 65 q 185 -72 203 -49 l 322 -69 q 349 -68 335 -69 z "},"₃":{"ha":514,"x_min":57,"x_max":439,"o":"m 189 308 q 193 274 193 296 q 176 233 193 253 q 128 214 160 214 q 75 274 75 214 q 127 367 75 333 q 249 400 179 400 q 369 361 319 400 q 419 244 419 322 q 361 131 419 167 q 439 10 439 90 q 389 -116 439 -71 q 231 -161 339 -161 q 57 -100 122 -161 q 74 -56 61 -76 q 99 -25 88 -35 l 110 -17 q 235 -87 158 -87 q 317 -62 290 -87 q 344 1 344 -37 q 289 88 344 65 q 234 86 268 86 q 174 90 200 86 q 171 123 171 107 q 182 156 171 139 q 245 147 206 147 q 306 178 285 147 q 328 242 328 208 q 308 302 328 276 q 249 328 288 328 q 189 308 210 328 z "},"₄":{"ha":500,"x_min":44,"x_max":433,"o":"m 253 383 q 315 396 285 396 q 393 392 346 396 q 381 194 381 297 q 382 71 381 92 q 425 79 415 76 q 433 30 433 54 q 424 -19 433 6 q 385 -15 386 -15 q 389 -85 385 -56 l 431 -90 q 432 -116 432 -99 q 428 -157 432 -133 q 336 -156 393 -156 q 251 -157 279 -156 q 246 -122 246 -140 q 249 -90 246 -103 l 288 -85 q 292 -11 288 -83 l 231 -11 q 51 -15 118 -11 q 44 28 44 3 q 253 383 190 256 m 294 64 q 296 145 296 79 q 292 306 296 211 q 156 63 242 231 q 294 64 253 64 z "},"₅":{"ha":514,"x_min":61,"x_max":431,"o":"m 406 385 l 404 363 q 400 257 404 358 q 367 254 378 254 q 329 258 356 254 l 326 314 l 193 314 l 179 188 q 233 192 211 192 q 383 139 336 192 q 431 11 431 86 q 380 -112 431 -64 q 228 -161 329 -161 q 115 -127 168 -161 q 61 -33 61 -93 q 115 26 61 26 q 179 -43 179 26 q 174 -71 179 -54 q 239 -87 197 -87 q 308 -58 281 -87 q 336 12 336 -29 q 312 85 336 53 q 230 118 288 118 q 136 94 172 118 q 79 106 107 94 q 106 347 106 176 q 103 396 106 371 q 290 388 219 388 q 394 397 361 388 l 406 385 z "},"₆":{"ha":494,"x_min":50,"x_max":425,"o":"m 353 228 q 304 247 321 228 q 288 289 288 267 q 290 318 288 311 q 235 332 269 332 q 172 282 200 332 q 142 142 143 232 q 258 194 190 194 q 376 147 326 194 q 425 21 425 100 q 371 -110 425 -58 q 224 -161 317 -161 q 91 -97 132 -161 q 50 103 50 -32 q 243 400 50 400 q 354 372 301 400 q 407 285 407 343 q 353 228 407 228 m 234 -87 q 253 -87 234 -87 q 302 -60 272 -87 q 332 17 332 -33 q 308 95 332 68 q 243 122 283 122 q 174 94 203 122 q 146 15 146 65 q 171 -61 146 -35 q 234 -87 196 -87 z "},"₇":{"ha":433,"x_min":32,"x_max":392,"o":"m 40 257 l 39 293 q 32 385 38 329 l 44 397 q 202 388 79 388 q 385 401 325 388 q 392 357 392 381 q 272 92 326 236 q 204 -144 217 -51 q 151 -156 182 -156 q 99 -137 121 -156 q 261 314 138 -4 q 111 308 186 314 q 108 258 108 275 q 76 254 92 254 q 40 257 60 254 z "},"₈":{"ha":476,"x_min":43,"x_max":426,"o":"m 43 -25 q 140 128 43 53 q 58 258 58 181 q 105 358 58 317 q 236 400 151 400 q 367 360 321 400 q 413 254 413 321 q 339 121 413 188 q 426 -7 426 67 q 368 -121 426 -81 q 233 -161 310 -161 q 75 -108 128 -161 q 43 -25 43 -75 m 139 -12 q 236 -87 139 -87 q 305 -62 279 -87 q 331 -7 331 -36 q 300 44 331 22 q 203 94 269 65 q 139 -12 139 39 m 236 332 q 176 315 201 332 q 151 268 151 297 q 171 217 151 239 q 210 185 190 196 q 269 156 229 175 q 322 254 322 201 q 236 332 322 332 z "},"₉":{"ha":494,"x_min":50,"x_max":425,"o":"m 114 13 q 163 -8 146 13 q 179 -49 179 -28 q 178 -75 179 -69 q 231 -90 197 -90 q 335 97 335 -90 q 219 46 290 46 q 99 93 149 46 q 50 219 50 140 q 103 349 50 297 q 250 400 157 400 q 384 336 343 400 q 425 138 425 272 q 228 -161 425 -161 q 115 -133 169 -161 q 61 -47 61 -106 q 114 13 61 13 m 233 117 q 252 117 233 117 q 301 144 271 117 q 331 224 331 171 q 306 304 331 276 q 242 332 282 332 q 173 302 203 332 q 143 222 143 272 q 169 144 143 171 q 233 117 194 117 z "},"€":{"ha":819,"x_min":28,"x_max":722,"o":"m 456 910 q 617 869 553 910 q 708 763 682 829 q 717 708 717 738 q 644 625 717 625 q 576 653 599 625 q 554 722 554 682 q 572 786 554 763 q 450 828 528 828 q 229 549 260 828 q 494 560 385 551 q 504 512 504 540 q 499 463 504 483 q 225 471 364 468 q 229 356 225 403 q 493 354 317 354 q 504 313 504 332 q 500 276 504 293 q 242 275 325 276 q 456 82 286 82 q 568 108 510 82 q 667 181 626 135 q 722 71 710 146 q 449 -21 599 -21 q 222 56 299 -21 q 122 271 144 132 l 38 265 q 28 313 28 285 q 33 363 28 342 q 114 358 113 358 q 111 471 111 389 l 39 471 q 28 513 28 493 q 32 549 28 532 l 115 549 q 456 910 149 910 z "},"™":{"ha":946,"x_min":57,"x_max":876,"o":"m 392 957 l 393 982 q 499 989 475 986 q 629 699 514 911 q 743 989 718 878 l 761 986 l 863 982 q 864 961 864 975 q 861 933 864 947 l 824 931 q 819 767 819 874 q 826 578 819 661 l 875 572 q 876 557 876 565 q 874 526 876 549 l 701 526 q 699 550 699 535 q 700 572 699 565 l 747 578 q 753 767 753 661 l 753 824 q 654 610 726 781 q 622 604 635 604 q 592 607 610 604 q 492 807 564 671 l 492 768 q 499 578 492 640 l 547 572 q 549 554 549 565 q 546 526 549 543 l 383 526 q 381 550 381 535 q 382 572 381 565 l 429 578 q 435 764 435 650 q 429 931 435 878 l 394 933 q 392 957 392 944 m 256 924 q 253 766 253 875 q 261 578 253 657 l 310 572 q 311 555 311 564 q 308 526 311 546 l 133 526 q 131 551 131 536 q 132 572 131 565 l 179 578 q 186 767 186 656 q 182 924 186 879 l 115 917 l 113 854 q 65 851 99 851 l 57 983 l 61 988 q 229 979 117 979 q 367 988 342 979 l 371 983 q 363 860 364 919 q 314 863 332 860 l 311 919 l 256 924 z "},"Ω":{"ha":1010,"x_min":85,"x_max":924,"o":"m 781 508 q 505 828 781 828 q 229 508 229 828 q 278 334 229 414 q 411 232 326 254 l 411 3 q 92 -12 203 3 l 85 -6 q 96 190 94 94 q 130 192 113 192 q 168 188 147 192 l 172 93 q 256 88 231 88 q 317 90 281 88 l 328 182 q 164 319 219 225 q 108 522 108 414 q 192 789 108 675 q 316 883 236 847 q 504 918 396 918 q 693 883 613 918 q 817 789 774 847 q 901 522 901 675 q 845 319 901 414 q 679 182 789 225 q 685 136 681 167 q 692 90 690 106 q 753 88 728 88 q 836 93 778 88 l 840 188 q 878 192 861 192 q 913 190 896 192 q 924 -6 914 94 l 917 -12 q 597 3 806 3 l 597 232 q 732 334 683 254 q 781 508 781 414 z "},"∂":{"ha":675,"x_min":60,"x_max":618,"o":"m 618 488 q 558 157 618 274 q 497 67 533 108 q 290 -21 421 -21 q 110 38 160 -21 q 60 204 60 97 q 140 532 60 400 q 379 664 221 664 q 510 604 456 664 q 428 782 486 721 q 257 885 371 843 q 286 954 265 933 q 618 488 618 853 m 297 79 q 413 136 367 79 q 493 428 493 238 q 378 586 493 586 q 234 485 288 586 q 181 231 181 383 q 297 79 181 79 z "},"∆":{"ha":779,"x_min":19,"x_max":758,"o":"m 758 -3 q 394 4 656 4 q 19 -3 133 4 q 283 888 246 600 q 389 901 324 901 q 494 888 454 901 q 758 -3 532 600 m 174 99 q 365 92 271 92 q 583 104 458 92 q 389 803 518 376 l 368 803 q 174 99 243 388 z "},"∏":{"ha":1043,"x_min":97,"x_max":946,"o":"m 328 333 l 328 178 q 340 -211 328 -64 l 390 -215 q 393 -253 393 -237 q 389 -293 393 -269 q 276 -292 340 -292 q 165 -293 213 -292 q 161 -256 161 -272 q 164 -215 161 -240 l 213 -211 q 224 135 224 -61 l 224 290 q 214 782 224 629 q 104 772 142 778 q 97 828 97 793 q 113 900 97 863 q 444 888 250 888 q 939 907 842 888 q 946 851 946 886 q 931 779 946 817 q 821 785 890 782 q 814 333 814 649 l 814 178 q 826 -211 814 -64 l 876 -215 q 879 -253 879 -237 q 875 -293 879 -269 q 763 -292 826 -292 q 651 -293 699 -292 q 647 -256 647 -272 q 650 -215 647 -240 l 699 -211 q 710 135 710 -61 l 710 290 q 699 789 710 642 q 486 792 554 792 q 335 788 418 792 q 328 333 328 651 z "},"∑":{"ha":797,"x_min":71,"x_max":756,"o":"m 272 792 l 240 792 l 536 349 q 547 307 547 333 q 536 264 547 281 l 249 -164 q 518 -169 365 -169 q 744 -157 671 -169 q 756 -231 756 -193 q 750 -293 756 -268 q 613 -280 725 -286 q 336 -274 500 -274 q 81 -283 172 -274 q 71 -233 72 -262 q 418 307 344 176 q 71 847 344 438 q 78 900 71 878 q 330 888 215 888 q 577 894 444 888 q 744 907 710 900 q 751 851 751 886 q 736 779 751 817 q 272 792 553 792 z "},"−":{"ha":835,"x_min":121,"x_max":714,"o":"m 704 397 q 456 410 576 410 q 243 403 336 410 q 125 390 150 397 q 121 446 121 410 q 131 513 121 482 q 363 500 226 500 q 710 519 640 500 q 714 464 714 500 q 704 397 714 428 z "},"√":{"ha":835,"x_min":65,"x_max":946,"o":"m 639 1078 q 771 1075 672 1075 q 939 1088 869 1075 q 946 1038 946 1064 q 931 974 946 1011 q 744 986 819 986 q 597 500 678 808 q 482 -3 517 192 q 378 -17 442 -17 q 274 -3 314 -17 q 65 640 154 429 q 166 664 121 664 q 226 663 211 664 q 372 90 269 400 l 378 90 q 639 1078 511 533 z "},"∞":{"ha":1075,"x_min":69,"x_max":1006,"o":"m 317 722 q 533 558 475 722 q 628 679 575 636 q 773 722 682 722 q 935 654 864 722 q 1006 444 1006 586 q 937 235 1006 301 q 758 168 868 168 q 540 332 599 168 q 446 211 499 254 q 302 168 393 168 q 140 236 211 168 q 69 447 69 304 q 138 656 69 589 q 317 722 207 722 m 924 438 q 924 473 924 438 q 883 560 924 508 q 775 611 842 611 q 667 564 708 611 q 583 424 625 517 q 658 313 615 350 q 772 275 701 275 q 883 322 842 275 q 924 438 924 368 m 151 452 q 151 417 151 452 q 192 331 151 382 q 300 279 233 279 q 408 326 367 279 q 490 467 449 374 q 416 578 458 542 q 303 615 374 615 q 192 569 233 615 q 151 452 151 522 z "},"∫":{"ha":556,"x_min":0,"x_max":556,"o":"m 307 703 q 333 251 307 594 q 360 -119 360 -92 q 311 -250 360 -208 q 172 -292 263 -292 q 3 -239 81 -292 q 0 -207 0 -229 q 29 -117 0 -154 q 176 -190 108 -190 q 228 -165 210 -190 q 247 -94 247 -140 q 221 325 247 17 q 194 725 194 633 q 243 858 194 817 q 383 900 292 900 q 551 847 474 900 q 556 817 556 838 q 525 725 556 764 q 378 799 446 799 q 326 774 344 799 q 307 703 307 749 z "},"≈":{"ha":835,"x_min":117,"x_max":719,"o":"m 697 539 q 600 585 663 585 q 418 545 538 585 q 233 506 299 506 q 117 543 167 506 q 136 649 117 597 q 234 603 171 603 q 417 642 297 603 q 603 682 538 682 q 719 644 669 682 q 697 539 719 597 m 697 275 q 600 321 663 321 q 418 281 538 321 q 233 242 299 242 q 117 279 167 242 q 136 385 117 333 q 234 339 171 339 q 417 378 297 339 q 603 418 538 418 q 719 381 669 418 q 697 275 719 333 z "},"≠":{"ha":835,"x_min":121,"x_max":714,"o":"m 225 -64 q 133 -37 171 -64 q 275 267 194 86 q 125 251 151 258 q 121 307 121 271 q 131 374 121 343 q 315 361 210 364 q 392 549 342 424 l 379 549 q 243 542 336 549 q 125 529 150 536 q 121 584 121 547 q 131 651 121 621 q 428 639 229 639 q 546 953 475 757 q 602 956 571 956 q 674 931 633 956 q 538 642 618 821 q 710 658 672 647 q 714 603 714 640 q 704 536 714 567 q 496 547 608 544 q 419 361 469 486 l 456 361 q 592 367 499 361 q 710 381 685 374 q 714 326 714 363 q 704 258 714 289 q 383 271 578 271 q 260 -61 340 163 q 225 -64 235 -64 z "},"≤":{"ha":835,"x_min":121,"x_max":714,"o":"m 131 454 q 121 509 121 474 q 131 565 121 544 q 539 775 303 631 q 639 842 619 824 q 669 792 651 826 q 692 731 686 758 q 431 608 586 689 q 244 510 276 528 q 442 405 310 474 q 692 289 574 336 q 669 227 686 261 q 639 178 651 193 q 539 244 619 196 q 131 454 303 389 m 704 -7 q 456 6 576 6 q 243 -1 336 6 q 125 -14 150 -7 q 121 41 121 4 q 131 108 121 78 q 363 96 226 96 q 710 115 640 96 q 714 60 714 97 q 704 -7 714 24 z "},"≥":{"ha":835,"x_min":121,"x_max":714,"o":"m 682 565 q 692 509 692 544 q 682 454 692 474 q 272 244 506 386 q 174 178 193 196 q 144 227 161 193 q 121 289 126 261 q 371 405 239 336 q 568 510 503 474 q 415 590 504 546 q 121 731 239 683 q 144 792 126 758 q 174 842 161 826 q 272 775 193 824 q 682 565 510 631 m 704 -7 q 456 6 576 6 q 243 -1 336 6 q 125 -14 150 -7 q 121 41 121 4 q 131 108 121 78 q 363 96 226 96 q 710 115 640 96 q 714 60 714 97 q 704 -7 714 24 z "},"◊":{"ha":832,"x_min":83,"x_max":749,"o":"m 631 307 q 568 461 615 343 q 413 807 483 674 l 397 807 q 274 529 339 699 q 186 307 208 360 q 247 151 208 254 q 397 -193 339 -85 l 413 -193 q 549 106 483 -60 q 631 307 615 271 m 515 -278 q 416 -292 474 -292 q 317 -278 358 -292 q 208 6 296 -201 q 83 307 121 213 q 178 535 121 401 q 317 892 296 815 q 416 906 358 906 q 515 892 474 906 q 624 608 536 815 q 749 307 711 401 q 656 79 711 213 q 515 -278 536 -201 z "},"ﬁ":{"ha":750,"x_min":47,"x_max":692,"o":"m 239 435 l 240 329 q 254 81 240 186 l 304 76 q 307 38 307 54 q 303 -1 307 22 q 190 0 254 0 q 79 -1 126 0 q 75 35 75 19 q 78 76 75 51 l 126 81 q 139 289 139 231 l 135 567 q 56 565 79 567 q 47 609 47 588 q 50 642 47 631 l 131 642 q 129 697 129 660 q 308 938 129 938 q 438 894 382 938 q 392 779 438 815 q 303 854 356 854 q 231 689 231 854 q 232 642 231 657 q 631 660 488 642 l 638 653 q 625 378 625 572 q 638 81 625 185 l 689 76 q 692 38 692 54 q 688 -1 692 22 q 575 0 639 0 q 464 -1 511 0 q 460 35 460 19 q 463 76 460 51 l 511 81 q 524 328 524 217 q 513 563 524 440 q 239 567 375 567 l 239 435 m 650 851 q 561 765 650 765 q 492 836 492 765 q 581 924 492 924 q 650 851 650 924 z "},"ﬂ":{"ha":722,"x_min":36,"x_max":681,"o":"m 128 289 l 124 567 q 44 565 68 567 q 36 609 36 588 q 39 642 36 631 l 119 642 q 118 697 118 660 q 174 880 118 824 q 339 936 231 936 q 494 917 404 936 q 596 946 538 946 q 635 944 621 946 q 614 503 614 774 l 614 356 q 626 81 614 185 l 678 76 q 681 38 681 54 q 676 -1 681 22 q 564 0 628 0 q 453 -1 500 0 q 449 35 449 19 q 451 76 449 51 l 500 81 q 513 322 513 211 l 513 442 q 503 807 513 722 q 325 856 376 856 q 247 818 274 856 q 219 689 219 781 q 221 643 219 658 q 394 651 338 646 q 403 612 403 633 q 397 560 403 590 q 228 565 344 563 l 228 435 l 229 329 q 243 81 229 186 l 293 76 q 296 38 296 54 q 292 -1 296 22 q 179 0 243 0 q 68 -1 115 0 q 64 35 64 19 q 67 76 64 51 l 114 81 q 128 289 128 214 z "}}}
